<svg width="32" height="32" viewBox="0 0 32 32" fill="none" xmlns="http://www.w3.org/2000/svg">
<path d="M14.4669 12.8914C14.2501 12.9844 14.0655 13.1391 13.9358 13.3361C13.8062 13.5331 13.7373 13.7638 13.7377 13.9997L13.7377 17.9997C13.7384 18.2354 13.8081 18.4656 13.9381 18.6622C14.068 18.8588 14.2526 19.0131 14.4692 19.106C14.6857 19.199 14.9247 19.2267 15.1567 19.1856C15.3888 19.1445 15.6038 19.0364 15.7752 18.8747L17.8835 16.8747C18.0031 16.7625 18.0985 16.627 18.1637 16.4765C18.229 16.326 18.2626 16.1637 18.2627 15.9997C18.2622 15.8352 18.2284 15.6724 18.1632 15.5212C18.098 15.3702 18.0029 15.2338 17.8835 15.1205L15.7752 13.1247C15.604 12.9617 15.3887 12.8527 15.156 12.8112C14.9235 12.7697 14.6838 12.7976 14.4669 12.8914Z" fill="#16378F"/>
</svg>
