<svg width="68" height="70" viewBox="0 0 68 70" fill="none" xmlns="http://www.w3.org/2000/svg">
<path d="M20.5413 46.6667C27.9742 46.6667 33.9997 40.464 33.9997 32.8125C33.9997 25.1611 27.9742 18.9584 20.5413 18.9584C13.1085 18.9584 7.08301 25.1611 7.08301 32.8125C7.08301 40.464 13.1085 46.6667 20.5413 46.6667Z" fill="#15C480"/>
<path d="M46.7493 35H25.4993C23.9345 35 22.666 36.3058 22.666 37.9167V59.7917C22.666 61.4025 23.9345 62.7083 25.4993 62.7083H46.7493C48.3142 62.7083 49.5827 61.4025 49.5827 59.7917V37.9167C49.5827 36.3058 48.3142 35 46.7493 35Z" fill="#3987F8"/>
<path d="M60.2859 22.1193L39.0359 7.53958C38.0938 6.89427 36.833 7.58698 36.833 8.75364V37.913C36.833 39.076 38.0938 39.7724 39.0359 39.1271L60.2859 24.5474C61.1288 23.9714 61.1288 22.699 60.2859 22.1193V22.1193Z" fill="#FFC82A"/>
<path d="M53.4792 68.5417C60.7164 68.5417 66.5833 62.5022 66.5833 55.0521C66.5833 47.602 60.7164 41.5625 53.4792 41.5625C46.2419 41.5625 40.375 47.602 40.375 55.0521C40.375 62.5022 46.2419 68.5417 53.4792 68.5417Z" fill="#F0464F"/>
<path d="M58.6156 57.0573C59.6914 57.0573 60.5635 56.1595 60.5635 55.0521C60.5635 53.9446 59.6914 53.0469 58.6156 53.0469H48.3447C47.2689 53.0469 46.3968 53.9446 46.3968 55.0521C46.3968 56.1595 47.2689 57.0573 48.3447 57.0573H58.6156Z" fill="white"/>
<path d="M51.5319 60.3385C51.5319 61.446 52.404 62.3438 53.4798 62.3438C54.5556 62.3438 55.4277 61.446 55.4277 60.3385V49.7656C55.4277 48.6582 54.5556 47.7604 53.4798 47.7604C52.404 47.7604 51.5319 48.6582 51.5319 49.7656V60.3385Z" fill="white"/>
</svg>
