<svg width="69" height="69" viewBox="0 0 69 69" fill="none" xmlns="http://www.w3.org/2000/svg">
<path d="M54.4557 12.0419H14.6162C13.0446 12.0419 11.7705 13.3159 11.7705 14.8875V58.9956C11.7705 60.5672 13.0446 61.8412 14.6162 61.8412H54.4557C56.0273 61.8412 57.3014 60.5672 57.3014 58.9956V14.8875C57.3014 13.3159 56.0273 12.0419 54.4557 12.0419Z" fill="#3987F8"/>
<path d="M43.0731 7.77332H25.999C25.2132 7.77332 24.5762 8.41034 24.5762 9.19615V14.8875C24.5762 15.6733 25.2132 16.3104 25.999 16.3104H43.0731C43.8589 16.3104 44.4959 15.6733 44.4959 14.8875V9.19615C44.4959 8.41034 43.8589 7.77332 43.0731 7.77332Z" fill="#2C6CCC"/>
<path d="M27.9556 43.195C31.59 43.195 34.5363 40.2487 34.5363 36.6143C34.5363 32.9799 31.59 30.0337 27.9556 30.0337C24.3212 30.0337 21.375 32.9799 21.375 36.6143C21.375 40.2487 24.3212 43.195 27.9556 43.195Z" fill="#D1E6FF"/>
<path d="M40.7326 37.653H30.417C29.6312 37.653 28.9941 38.29 28.9941 39.0758V49.3914C28.9941 50.1772 29.6312 50.8142 30.417 50.8142H40.7326C41.5184 50.8142 42.1554 50.1772 42.1554 49.3914V39.0758C42.1554 38.29 41.5184 37.653 40.7326 37.653Z" fill="#94C6F7"/>
<path d="M47.3844 31.549L37.0688 24.6126C36.5957 24.2961 35.959 24.634 35.959 25.2031V39.0722C35.959 39.6414 36.5957 39.9793 37.0688 39.6627L47.3844 32.7264C47.8041 32.4454 47.8041 31.8264 47.3844 31.5454V31.549Z" fill="white"/>
<path d="M54.1007 67.5326C61.3695 67.5326 67.262 61.6401 67.262 54.3713C67.262 47.1026 61.3695 41.2101 54.1007 41.2101C46.832 41.2101 40.9395 47.1026 40.9395 54.3713C40.9395 61.6401 46.832 67.5326 54.1007 67.5326Z" fill="#FFC82A"/>
<path d="M58.547 50.6436V49.7472C58.547 48.9611 57.9103 48.3243 57.1242 48.3243H51.0771C50.291 48.3243 49.6543 48.9611 49.6543 49.7472V50.6436C49.6543 51.4973 50.0385 52.3047 50.6965 52.8454L52.5604 54.3714L50.6965 55.8974C50.0349 56.4381 49.6543 57.2455 49.6543 58.0992V58.9956C49.6543 59.7818 50.291 60.4185 51.0771 60.4185H57.1242C57.9103 60.4185 58.547 59.7818 58.547 58.9956V58.0992C58.547 57.2455 58.1629 56.4381 57.5048 55.8974L55.6409 54.3714L57.5048 52.8454C58.1664 52.3047 58.547 51.4973 58.547 50.6436Z" fill="white"/>
</svg>
