<svg width="69" height="69" viewBox="0 0 69 69" fill="none" xmlns="http://www.w3.org/2000/svg">
<path d="M54.3258 12.0419H14.4863C12.9147 12.0419 11.6406 13.3159 11.6406 14.8875V58.9956C11.6406 60.5672 12.9147 61.8412 14.4863 61.8412H54.3258C55.8974 61.8412 57.1715 60.5672 57.1715 58.9956V14.8875C57.1715 13.3159 55.8974 12.0419 54.3258 12.0419Z" fill="#15C480"/>
<path d="M42.9432 7.77332H25.8691C25.0833 7.77332 24.4463 8.41034 24.4463 9.19615V14.8875C24.4463 15.6733 25.0833 16.3104 25.8691 16.3104H42.9432C43.729 16.3104 44.366 15.6733 44.366 14.8875V9.19615C44.366 8.41034 43.729 7.77332 42.9432 7.77332Z" fill="#239A6D"/>
<path d="M53.9708 67.5326C61.2396 67.5326 67.1321 61.6401 67.1321 54.3713C67.1321 47.1026 61.2396 41.2101 53.9708 41.2101C46.7021 41.2101 40.8096 47.1026 40.8096 54.3713C40.8096 61.6401 46.7021 67.5326 53.9708 67.5326Z" fill="#FFC82A"/>
<path d="M58.4172 50.6436V49.7472C58.4172 48.9611 57.7804 48.3243 56.9943 48.3243H50.9473C50.1611 48.3243 49.5244 48.9611 49.5244 49.7472V50.6436C49.5244 51.4973 49.9086 52.3047 50.5666 52.8454L52.4306 54.3714L50.5666 55.8974C49.905 56.4381 49.5244 57.2455 49.5244 58.0992V58.9956C49.5244 59.7818 50.1611 60.4185 50.9473 60.4185H56.9943C57.7804 60.4185 58.4172 59.7818 58.4172 58.9956V58.0992C58.4172 57.2455 58.033 56.4381 57.3749 55.8974L55.511 54.3714L57.3749 52.8454C58.0366 52.3047 58.4172 51.4973 58.4172 50.6436Z" fill="white"/>
</svg>
