<svg width="69" height="69" viewBox="0 0 69 69" fill="none" xmlns="http://www.w3.org/2000/svg">
<path d="M14.7461 26.2703H54.5856V56.1499C54.5856 59.2908 52.0352 61.8412 48.8942 61.8412H20.4375C17.2965 61.8412 14.7461 59.2908 14.7461 56.1499V26.2703Z" fill="#CFD1D5"/>
<path d="M25.951 49.5694C25.951 50.8463 26.9861 51.8815 28.2631 51.8815C29.54 51.8815 30.5752 50.8463 30.5752 49.5694L30.5752 37.1195C30.5752 35.8426 29.54 34.8074 28.2631 34.8074C26.9861 34.8074 25.951 35.8426 25.951 37.1195V49.5694Z" fill="#E7E8EA"/>
<path d="M38.7566 49.5694C38.7566 50.8463 39.7918 51.8815 41.0687 51.8815C42.3457 51.8815 43.3809 50.8463 43.3809 49.5694V37.1195C43.3809 35.8426 42.3457 34.8074 41.0687 34.8074C39.7918 34.8074 38.7566 35.8426 38.7566 37.1195V49.5694Z" fill="#E7E8EA"/>
<path d="M54.5856 16.3105H46.0485V11.3305C46.0485 9.36702 44.455 7.77344 42.4914 7.77344H26.8402C24.8767 7.77344 23.2831 9.36702 23.2831 11.3305V16.3105H14.7461C13.1738 16.3105 11.9004 17.5839 11.9004 19.1562V24.8475C11.9004 25.6336 12.5371 26.2703 13.3232 26.2703H56.0084C56.7945 26.2703 57.4312 25.6336 57.4312 24.8475V19.1562C57.4312 17.5839 56.1578 16.3105 54.5856 16.3105ZM28.9745 13.4648H40.3572V16.3105H28.9745V13.4648Z" fill="#9FA4AB"/>
</svg>
