<svg width="70" height="69" viewBox="0 0 70 69" fill="none" xmlns="http://www.w3.org/2000/svg">
<path d="M17.8515 9.19629H54.8453C56.4176 9.19629 57.691 10.4697 57.691 12.042V57.5728C57.691 59.1451 56.4176 60.4185 54.8453 60.4185H17.8515C14.7106 60.4185 12.1602 57.8681 12.1602 54.7271V14.8876C12.1602 11.7467 14.7106 9.19629 17.8515 9.19629Z" fill="#15C480"/>
<path d="M17.8515 9.19629H20.6972V60.4185H17.8515C14.7106 60.4185 12.1602 57.8681 12.1602 54.7271V14.8876C12.1602 11.7467 14.7106 9.19629 17.8515 9.19629Z" fill="#239A6D"/>
<path d="M43.6404 22.7133H34.7477C33.4707 22.7133 32.4355 23.7484 32.4355 25.0254C32.4355 26.3023 33.4707 27.3375 34.7477 27.3375H43.6404C44.9174 27.3375 45.9525 26.3023 45.9525 25.0254C45.9525 23.7484 44.9174 22.7133 43.6404 22.7133Z" fill="#9EEED3"/>
</svg>
