<svg width="69" height="70" viewBox="0 0 69 70" fill="none" xmlns="http://www.w3.org/2000/svg">
<path d="M10.3476 22.2759H58.7242C60.2964 22.2759 61.5698 23.5493 61.5698 25.1216V53.5783C61.5698 56.7193 59.0194 59.2697 55.8785 59.2697H13.1933C10.0524 59.2697 7.50195 56.7193 7.50195 53.5783V25.1216C7.50195 23.5493 8.77539 22.2759 10.3476 22.2759Z" fill="#7666EF"/>
<path d="M10.3476 22.2759H58.7242C60.2964 22.2759 61.5698 23.5493 61.5698 25.1216V36.5043H7.50195V25.1216C7.50195 23.5493 8.77539 22.2759 10.3476 22.2759Z" fill="#5A53D2"/>
<path d="M41.6502 10.8932H27.4218C24.2774 10.8932 21.7305 13.4401 21.7305 16.5845V22.2759H28.1332V17.296H40.9388V22.2759H47.3416V16.5845C47.3416 13.4401 44.7947 10.8932 41.6502 10.8932Z" fill="#7666EF"/>
<path d="M29.5557 36.5043H39.5155V38.6385C39.5155 40.2108 38.2421 41.4842 36.6699 41.4842H32.4013C30.8291 41.4842 29.5557 40.2108 29.5557 38.6385V36.5043Z" fill="#BAB7F8"/>
</svg>
