<svg width="69" height="70" viewBox="0 0 69 70" fill="none" xmlns="http://www.w3.org/2000/svg">
<path d="M34.7967 59.2697C48.1555 59.2697 58.9849 48.4403 58.9849 35.0815C58.9849 21.7226 48.1555 10.8932 34.7967 10.8932C21.4379 10.8932 10.6084 21.7226 10.6084 35.0815C10.6084 48.4403 21.4379 59.2697 34.7967 59.2697Z" fill="#FFC82A"/>
<path d="M17.1964 49.0858L34.7969 59.2698H13.8847C11.3485 59.2698 10.0786 56.2036 11.8714 54.4108L17.1964 49.0858Z" fill="#FFC82A"/>
<path d="M44.9057 34.3167C46.172 33.0824 45.4748 30.9304 43.7211 30.6778L40.0253 30.1407C39.3068 30.0375 38.6843 29.5858 38.3642 28.9313L36.7101 25.5805C35.9275 23.994 33.6652 23.994 32.8827 25.5805L31.2286 28.9313C30.9085 29.5822 30.286 30.034 29.5674 30.1407L25.8716 30.6778C24.1215 30.9339 23.4208 33.0824 24.6871 34.3167L27.362 36.9241C27.8814 37.4327 28.1197 38.1619 27.9988 38.8769L27.3656 42.5585C27.0668 44.3015 28.8952 45.6318 30.4638 44.8101L33.7719 43.0707C34.4158 42.7328 35.1841 42.7328 35.8279 43.0707L39.136 44.8101C40.7012 45.6318 42.5331 44.305 42.2343 42.5585L41.6011 38.8769C41.4766 38.1619 41.7149 37.4292 42.2378 36.9241L44.9128 34.3167H44.9057Z" fill="white"/>
</svg>
