<svg width="69" height="69" viewBox="0 0 69 69" fill="none" xmlns="http://www.w3.org/2000/svg">
<path d="M34.1853 58.9956C47.5442 58.9956 58.3736 48.1661 58.3736 34.8073C58.3736 21.4485 47.5442 10.619 34.1853 10.619C20.8265 10.619 9.99707 21.4485 9.99707 34.8073C9.99707 48.1661 20.8265 58.9956 34.1853 58.9956Z" fill="#FFC82A"/>
<path d="M16.585 48.8116L34.1856 58.9956H13.2734C10.7372 58.9956 9.46728 55.9294 11.2601 54.1366L16.585 48.8116Z" fill="#FFC82A"/>
<path d="M34.1855 46.6134C35.7571 46.6134 37.0312 45.3393 37.0312 43.7677C37.0312 42.1961 35.7571 40.922 34.1855 40.922C32.6139 40.922 31.3398 42.1961 31.3398 43.7677C31.3398 45.3393 32.6139 46.6134 34.1855 46.6134Z" fill="white"/>
<path d="M34.1855 39.4315C32.8089 39.4315 31.6955 38.3181 31.6955 36.9416C31.6955 34.9033 32.816 33.0892 34.8542 31.83C35.5443 31.4031 36.3624 30.7095 36.3197 29.8416C36.2735 28.8634 35.3664 28.031 34.2958 27.9848C33.6626 27.9563 33.0792 28.1697 32.6453 28.5859C32.2647 28.9523 32.0512 29.429 32.0512 29.9341C32.0512 31.3107 30.9379 32.424 29.5613 32.424C28.1847 32.424 27.0713 31.3107 27.0713 29.9341C27.0713 28.0595 27.829 26.3023 29.202 24.9897C30.607 23.6451 32.5492 22.9266 34.5163 23.012C38.1481 23.172 41.1254 26.0675 41.2926 29.6068C41.4171 32.175 40.0583 34.4694 37.4722 36.0701C36.9885 36.3689 36.6755 36.7139 36.6755 36.9451C36.6755 38.3217 35.5621 39.4351 34.1855 39.4351V39.4315Z" fill="white"/>
</svg>
