<svg width="69" height="70" viewBox="0 0 69 70" fill="none" xmlns="http://www.w3.org/2000/svg">
<path d="M51.7409 8.04761H17.5927C16.0211 8.04761 14.7471 9.32166 14.7471 10.8933V59.2698C14.7471 60.8414 16.0211 62.1155 17.5927 62.1155H51.7409C53.3125 62.1155 54.5866 60.8414 54.5866 59.2698V10.8933C54.5866 9.32166 53.3125 8.04761 51.7409 8.04761Z" fill="#FFC72A"/>
<path d="M30.3984 49.3099H38.9355C39.7216 49.3099 40.3583 49.9467 40.3583 50.7328V62.1155H28.9756V50.7328C28.9756 49.9467 29.6123 49.3099 30.3984 49.3099Z" fill="#FFAC24"/>
<path d="M27.5518 20.4974V18.3631C27.5518 17.5773 26.9147 16.9403 26.1289 16.9403H23.9947C23.2088 16.9403 22.5718 17.5773 22.5718 18.3631V20.4974C22.5718 21.2832 23.2088 21.9202 23.9947 21.9202H26.1289C26.9147 21.9202 27.5518 21.2832 27.5518 20.4974Z" fill="#FFFAEF"/>
<path d="M37.1562 20.4974V18.3631C37.1562 17.5773 36.5192 16.9403 35.7334 16.9403H33.5991C32.8133 16.9403 32.1763 17.5773 32.1763 18.3631V20.4974C32.1763 21.2832 32.8133 21.9202 33.5991 21.9202H35.7334C36.5192 21.9202 37.1562 21.2832 37.1562 20.4974Z" fill="#FFFAEF"/>
<path d="M46.7607 20.4974V18.3631C46.7607 17.5773 46.1237 16.9403 45.3379 16.9403H43.2036C42.4178 16.9403 41.7808 17.5773 41.7808 18.3631V20.4974C41.7808 21.2832 42.4178 21.9202 43.2036 21.9202H45.3379C46.1237 21.9202 46.7607 21.2832 46.7607 20.4974Z" fill="#FFFAEF"/>
<path d="M27.5518 29.7458V27.6116C27.5518 26.8257 26.9147 26.1887 26.1289 26.1887H23.9947C23.2088 26.1887 22.5718 26.8257 22.5718 27.6116V29.7458C22.5718 30.5316 23.2088 31.1687 23.9947 31.1687H26.1289C26.9147 31.1687 27.5518 30.5316 27.5518 29.7458Z" fill="#FFFAEF"/>
<path d="M37.1562 29.7458V27.6116C37.1562 26.8257 36.5192 26.1887 35.7334 26.1887H33.5991C32.8133 26.1887 32.1763 26.8257 32.1763 27.6116V29.7458C32.1763 30.5316 32.8133 31.1687 33.5991 31.1687H35.7334C36.5192 31.1687 37.1562 30.5316 37.1562 29.7458Z" fill="#FFFAEF"/>
<path d="M46.7607 29.7458V27.6116C46.7607 26.8257 46.1237 26.1887 45.3379 26.1887H43.2036C42.4178 26.1887 41.7808 26.8257 41.7808 27.6116V29.7458C41.7808 30.5316 42.4178 31.1687 43.2036 31.1687H45.3379C46.1237 31.1687 46.7607 30.5316 46.7607 29.7458Z" fill="#FFFAEF"/>
<path d="M27.5518 38.9944V36.8601C27.5518 36.0743 26.9147 35.4373 26.1289 35.4373H23.9947C23.2088 35.4373 22.5718 36.0743 22.5718 36.8601V38.9944C22.5718 39.7802 23.2088 40.4172 23.9947 40.4172H26.1289C26.9147 40.4172 27.5518 39.7802 27.5518 38.9944Z" fill="#FFFAEF"/>
<path d="M37.1562 38.9944V36.8601C37.1562 36.0743 36.5192 35.4373 35.7334 35.4373H33.5991C32.8133 35.4373 32.1763 36.0743 32.1763 36.8601V38.9944C32.1763 39.7802 32.8133 40.4172 33.5991 40.4172H35.7334C36.5192 40.4172 37.1562 39.7802 37.1562 38.9944Z" fill="#FFFAEF"/>
<path d="M46.7607 38.9944V36.8601C46.7607 36.0743 46.1237 35.4373 45.3379 35.4373H43.2036C42.4178 35.4373 41.7808 36.0743 41.7808 36.8601V38.9944C41.7808 39.7802 42.4178 40.4172 43.2036 40.4172H45.3379C46.1237 40.4172 46.7607 39.7802 46.7607 38.9944Z" fill="#FFFAEF"/>
</svg>
