<svg width="69" height="70" viewBox="0 0 69 70" fill="none" xmlns="http://www.w3.org/2000/svg">
<path d="M59.8882 13.739H8.666C7.88019 13.739 7.24316 14.376 7.24316 15.1619V55.0014C7.24316 55.7872 7.88019 56.4242 8.666 56.4242H59.8882C60.674 56.4242 61.3111 55.7872 61.3111 55.0014V15.1619C61.3111 14.376 60.674 13.739 59.8882 13.739Z" fill="#964B39"/>
<path d="M8.666 13.739H23.6058V26.5446H7.24316V15.1619C7.24316 14.3757 7.87988 13.739 8.666 13.739Z" fill="#FFB39F"/>
<path d="M44.9482 13.739H59.8881C60.6742 13.739 61.3109 14.3757 61.3109 15.1619V26.5446H44.9482V13.739Z" fill="#BA614D"/>
<path d="M42.4584 13.739H26.0957V26.5446H42.4584V13.739Z" fill="#EA846C"/>
<path d="M7.24316 43.6187H23.6058V56.4242H8.666C7.87988 56.4242 7.24316 55.7875 7.24316 55.0014V43.6187Z" fill="#FFB39F"/>
<path d="M44.9482 43.6187H61.3109V55.0014C61.3109 55.7875 60.6742 56.4242 59.8881 56.4242H44.9482V43.6187Z" fill="#BA614D"/>
<path d="M42.4584 43.6187H26.0957V56.4242H42.4584V43.6187Z" fill="#EA846C"/>
<path d="M51.8851 28.6788H35.5225V41.4844H51.8851V28.6788Z" fill="#FFB39F"/>
<path d="M33.0326 28.6788H16.6699V41.4844H33.0326V28.6788Z" fill="#BA614D"/>
<path d="M14.1795 28.6788H7.24316V41.4844H14.1795V28.6788Z" fill="#EA846C"/>
<path d="M61.3104 28.6788H54.374V41.4844H61.3104V28.6788Z" fill="#EA846C"/>
</svg>
