<svg width="69" height="69" viewBox="0 0 69 69" fill="none" xmlns="http://www.w3.org/2000/svg">
<path d="M12.8056 14.4358H55.4908C57.0631 14.4358 58.3365 15.7092 58.3365 17.2815V52.8525C58.3365 55.9934 55.7861 58.5438 52.6451 58.5438H15.6513C12.5104 58.5438 9.95996 55.9934 9.95996 52.8525V17.2815C9.95996 15.7092 11.2334 14.4358 12.8056 14.4358Z" fill="#F4F4F5"/>
<path d="M12.8056 14.4358H55.4908C57.0631 14.4358 58.3365 15.7092 58.3365 17.2815V27.2413H9.95996V17.2815C9.95996 15.7092 11.2334 14.4358 12.8056 14.4358Z" fill="#F0464F"/>
<path d="M24.1884 13.0129C24.1884 11.4413 22.9144 10.1672 21.3427 10.1672C19.7711 10.1672 18.4971 11.4413 18.4971 13.0129V18.7043C18.4971 20.2759 19.7711 21.55 21.3427 21.55C22.9144 21.55 24.1884 20.2759 24.1884 18.7043V13.0129Z" fill="#656A71"/>
<path d="M49.7998 13.0129C49.7998 11.4413 48.5257 10.1672 46.9541 10.1672C45.3825 10.1672 44.1084 11.4413 44.1084 13.0129V18.7043C44.1084 20.2759 45.3825 21.55 46.9541 21.55C48.5257 21.55 49.7998 20.2759 49.7998 18.7043V13.0129Z" fill="#656A71"/>
<path d="M23.1206 33.1104H19.5635C18.7777 33.1104 18.1406 33.7474 18.1406 34.5332V38.0903C18.1406 38.8761 18.7777 39.5131 19.5635 39.5131H23.1206C23.9064 39.5131 24.5434 38.8761 24.5434 38.0903V34.5332C24.5434 33.7474 23.9064 33.1104 23.1206 33.1104Z" fill="#CFD1D5"/>
<path d="M35.9262 33.1104H32.3691C31.5833 33.1104 30.9463 33.7474 30.9463 34.5332V38.0903C30.9463 38.8761 31.5833 39.5131 32.3691 39.5131H35.9262C36.712 39.5131 37.3491 38.8761 37.3491 38.0903V34.5332C37.3491 33.7474 36.712 33.1104 35.9262 33.1104Z" fill="#CFD1D5"/>
<path d="M48.7319 33.1104H45.1748C44.389 33.1104 43.752 33.7474 43.752 34.5332V38.0903C43.752 38.8761 44.389 39.5131 45.1748 39.5131H48.7319C49.5177 39.5131 50.1547 38.8761 50.1547 38.0903V34.5332C50.1547 33.7474 49.5177 33.1104 48.7319 33.1104Z" fill="#CFD1D5"/>
<path d="M23.1206 44.8489H19.5635C18.7777 44.8489 18.1406 45.4859 18.1406 46.2717V49.8288C18.1406 50.6146 18.7777 51.2517 19.5635 51.2517H23.1206C23.9064 51.2517 24.5434 50.6146 24.5434 49.8288V46.2717C24.5434 45.4859 23.9064 44.8489 23.1206 44.8489Z" fill="#CFD1D5"/>
<path d="M35.9262 44.8489H32.3691C31.5833 44.8489 30.9463 45.4859 30.9463 46.2717V49.8288C30.9463 50.6146 31.5833 51.2517 32.3691 51.2517H35.9262C36.712 51.2517 37.3491 50.6146 37.3491 49.8288V46.2717C37.3491 45.4859 36.712 44.8489 35.9262 44.8489Z" fill="#CFD1D5"/>
<path d="M48.7319 44.8489H45.1748C44.389 44.8489 43.752 45.4859 43.752 46.2717V49.8288C43.752 50.6146 44.389 51.2517 45.1748 51.2517H48.7319C49.5177 51.2517 50.1547 50.6146 50.1547 49.8288V46.2717C50.1547 45.4859 49.5177 44.8489 48.7319 44.8489Z" fill="#CFD1D5"/>
</svg>
