<svg width="69" height="69" viewBox="0 0 69 69" fill="none" xmlns="http://www.w3.org/2000/svg">
<path d="M58.4654 18.989H47.0827L43.643 13.2549C43.1272 12.3976 42.2023 11.8748 41.2028 11.8748H27.3514C26.3519 11.8748 25.427 12.3976 24.9113 13.2549L21.4716 18.989H10.0888C8.51661 18.989 7.24316 20.2624 7.24316 21.8346V51.7143C7.24316 53.2865 8.51661 54.5599 10.0888 54.5599H58.4654C60.0376 54.5599 61.3111 53.2865 61.3111 51.7143V21.8346C61.3111 20.2624 60.0376 18.989 58.4654 18.989Z" fill="#CFD1D5"/>
<path d="M34.2763 47.4456C40.5628 47.4456 45.659 42.3494 45.659 36.0629C45.659 29.7764 40.5628 24.6802 34.2763 24.6802C27.9898 24.6802 22.8936 29.7764 22.8936 36.0629C22.8936 42.3494 27.9898 47.4456 34.2763 47.4456Z" fill="#F4F4F5"/>
<path d="M34.2769 49.7578C26.7251 49.7578 20.582 43.6147 20.582 36.063C20.582 28.5113 26.7251 22.3682 34.2769 22.3682C41.8286 22.3682 47.9717 28.5113 47.9717 36.063C47.9717 43.6147 41.8286 49.7578 34.2769 49.7578ZM34.2769 26.9924C29.2756 26.9924 25.2063 31.0617 25.2063 36.063C25.2063 41.0643 29.2756 45.1336 34.2769 45.1336C39.2781 45.1336 43.3475 41.0643 43.3475 36.063C43.3475 31.0617 39.2781 26.9924 34.2769 26.9924Z" fill="#9FA4AB"/>
<path d="M52.7744 30.3718C54.346 30.3718 55.6201 29.0977 55.6201 27.5261C55.6201 25.9545 54.346 24.6804 52.7744 24.6804C51.2028 24.6804 49.9287 25.9545 49.9287 27.5261C49.9287 29.0977 51.2028 30.3718 52.7744 30.3718Z" fill="#9FA4AB"/>
</svg>
