<svg width="70" height="70" viewBox="0 0 70 70" fill="none" xmlns="http://www.w3.org/2000/svg">
<path d="M20.276 42.7577L15.3814 51.8496C13.5459 55.2609 16.0146 59.3942 19.8882 59.3942H36.0197C39.8934 59.3942 42.362 55.2573 40.5265 51.8496L35.632 42.7577H20.276Z" fill="#3987F8"/>
<path d="M27.9555 50.4376C38.9097 50.4376 47.7899 41.5574 47.7899 30.6032C47.7899 19.649 38.9097 10.7688 27.9555 10.7688C17.0013 10.7688 8.12109 19.649 8.12109 30.6032C8.12109 41.5574 17.0013 50.4376 27.9555 50.4376Z" fill="#D1E6FF"/>
<path d="M27.9553 38.5995C32.3716 38.5995 35.9517 35.0194 35.9517 30.6032C35.9517 26.1869 32.3716 22.6068 27.9553 22.6068C23.5391 22.6068 19.959 26.1869 19.959 30.6032C19.959 35.0194 23.5391 38.5995 27.9553 38.5995Z" fill="#3987F8"/>
<path d="M37.5527 23.5673C38.6135 23.5673 39.4735 22.7073 39.4735 21.6464C39.4735 20.5856 38.6135 19.7256 37.5527 19.7256C36.4918 19.7256 35.6318 20.5856 35.6318 21.6464C35.6318 22.7073 36.4918 23.5673 37.5527 23.5673Z" fill="#3987F8"/>
<path d="M54.8223 52.3939C54.4025 52.3939 53.9792 52.2587 53.6235 51.9813C52.7698 51.3161 52.6169 50.0889 53.282 49.2352C56.455 45.1552 58.1304 40.2606 58.1304 35.0815C58.1304 30.2083 56.6293 25.5485 53.7907 21.6072C53.1575 20.7322 53.3567 19.5085 54.2353 18.8754C55.1104 18.2422 56.334 18.4414 56.9672 19.32C60.2895 23.93 62.0467 29.3795 62.0467 35.0815C62.0467 41.1428 60.0832 46.8662 56.3731 51.6398C55.989 52.1342 55.4092 52.3939 54.8294 52.3939H54.8223Z" fill="#3987F8"/>
<path d="M50.9096 45.1267C50.6108 45.1267 50.3049 45.0591 50.0203 44.9132C49.0599 44.4224 48.6757 43.2414 49.1701 42.281C50.3155 40.04 50.8953 37.6176 50.8953 35.0814C50.8953 32.5452 50.2977 30.0588 49.1239 27.7929C48.6259 26.8325 48.9994 25.6516 49.9598 25.1536C50.9202 24.6556 52.1012 25.0291 52.5992 25.9895C54.0469 28.7747 54.8117 31.9192 54.8117 35.0814C54.8117 38.2437 54.0683 41.3028 52.6561 44.0595C52.3111 44.7354 51.6245 45.1267 50.9131 45.1267H50.9096Z" fill="#3987F8"/>
</svg>
