<svg width="69" height="69" viewBox="0 0 69 69" fill="none" xmlns="http://www.w3.org/2000/svg">
<path d="M20.1786 42.4194H13.0644C11.4928 42.4194 10.2188 43.6935 10.2188 45.2651V55.6981C10.2188 57.2697 11.4928 58.5438 13.0644 58.5438H20.1786C21.7503 58.5438 23.0243 57.2697 23.0243 55.6981V45.2651C23.0243 43.6935 21.7503 42.4194 20.1786 42.4194Z" fill="#43DAA0"/>
<path d="M45.79 42.4194H58.5956V55.6981C58.5956 57.2703 57.3222 58.5438 55.7499 58.5438H48.6357C47.0635 58.5438 45.79 57.2703 45.79 55.6981V42.4194Z" fill="#43DAA0"/>
<path d="M58.5956 26.2915H45.79V42.4158H58.5956V26.2915Z" fill="#15C380"/>
<path d="M48.6357 10.1672H55.7499C57.3222 10.1672 58.5956 11.4407 58.5956 13.0129V26.2916H45.79V13.0129C45.79 11.4407 47.0635 10.1672 48.6357 10.1672Z" fill="#23996D"/>
<path d="M28.0039 42.4194H40.8095V55.6981C40.8095 57.2703 39.536 58.5438 37.9638 58.5438H30.8496C29.2773 58.5438 28.0039 57.2703 28.0039 55.6981V42.4194Z" fill="#43DAA0"/>
<path d="M30.8496 26.2915H37.9638C39.536 26.2915 40.8095 27.5649 40.8095 29.1372V42.4158H28.0039V29.1372C28.0039 27.5649 29.2773 26.2915 30.8496 26.2915Z" fill="#15C380"/>
</svg>
