<svg width="69" height="69" viewBox="0 0 69 69" fill="none" xmlns="http://www.w3.org/2000/svg">
<path d="M49.6062 58.8178H19.7265C18.1543 58.8178 16.8809 57.5443 16.8809 55.9721V31.7838L34.6664 17.5554L52.4518 31.7838V55.9721C52.4518 57.5443 51.1784 58.8178 49.6062 58.8178Z" fill="#FFE49A"/>
<path d="M31.1094 42.4553H38.2235C39.7958 42.4553 41.0692 43.7288 41.0692 45.301V58.818H28.2637V45.301C28.2637 43.7288 29.5371 42.4553 31.1094 42.4553Z" fill="#FFC72A"/>
<path d="M51.2315 36.7318L34.6661 23.0156L18.1007 36.7318C16.8913 37.7349 15.095 37.5641 14.0954 36.3547L11.1324 32.7763C10.1293 31.5669 10.3 29.7705 11.5094 28.771L32.852 11.0958C33.9049 10.2243 35.4274 10.2243 36.4838 11.0958L57.8264 28.771C59.0358 29.7741 59.2066 31.5669 58.2035 32.7763L55.2404 36.3547C54.2373 37.5641 52.4445 37.7349 51.2351 36.7318H51.2315Z" fill="#FFAD24"/>
</svg>
