<svg width="69" height="69" viewBox="0 0 69 69" fill="none" xmlns="http://www.w3.org/2000/svg">
<path d="M33.4449 42.6223C34.0816 42.4551 34.5369 41.8967 34.5369 41.2386V34.6259H27.9243C27.2662 34.6259 26.7113 34.1706 26.5405 33.5339C26.0603 31.7198 24.4063 30.3823 22.4392 30.3823C20.4721 30.3823 18.8216 31.7198 18.3379 33.5339C18.1707 34.1706 17.6122 34.6259 16.9542 34.6259H10.3486V55.9685C10.3486 57.5408 11.6221 58.8142 13.1943 58.8142H34.5369V52.2016C34.5369 51.5435 34.0816 50.9886 33.4449 50.8179C31.6308 50.3376 30.2933 48.6836 30.2933 46.7165C30.2933 44.7494 31.6308 43.099 33.4449 42.6152V42.6223Z" fill="#7666EF"/>
<path d="M55.8797 10.4414H34.5371V17.0505C34.5371 17.7086 34.9924 18.2635 35.6291 18.4342C37.4433 18.9144 38.7807 20.5685 38.7807 22.5355C38.7807 24.5026 37.4433 26.1531 35.6291 26.6369C34.9924 26.8041 34.5371 27.3625 34.5371 28.0206V34.6297H41.1462C41.8043 34.6297 42.3592 35.085 42.5299 35.7217C43.0101 37.5358 44.6642 38.8733 46.6312 38.8733C48.5983 38.8733 50.2488 37.5358 50.7326 35.7217C50.8998 35.085 51.4582 34.6297 52.1163 34.6297H58.7289V13.2871C58.7289 11.7148 57.4555 10.4414 55.8833 10.4414H55.8797Z" fill="#7666EF"/>
<path d="M35.6289 18.4342C34.9922 18.267 34.5369 17.7086 34.5369 17.0505V10.4414H13.1943C11.6221 10.4414 10.3486 11.7148 10.3486 13.2871V34.6297H16.9613C17.6193 34.6297 18.1742 34.1744 18.345 33.5376C18.8252 31.7235 20.4792 30.3861 22.4463 30.3861C24.4134 30.3861 26.0639 31.7235 26.5477 33.5376C26.7148 34.1744 27.2733 34.6297 27.9314 34.6297H34.544V28.0206C34.544 27.3625 34.9993 26.8076 35.636 26.6369C37.4502 26.1567 38.7876 24.5026 38.7876 22.5355C38.7876 20.5685 37.4502 18.918 35.636 18.4342H35.6289Z" fill="#BAB7F8"/>
<path d="M58.7249 55.9722V34.6296H52.1158C51.4577 34.6296 50.9028 35.0849 50.7321 35.7217C50.2519 37.5358 48.5978 38.8733 46.6307 38.8733C44.6636 38.8733 43.0132 37.5358 42.5294 35.7217C42.3622 35.0849 41.8037 34.6296 41.1457 34.6296H34.5366V41.2387C34.5366 41.8968 34.0813 42.4517 33.4446 42.6224C31.6304 43.1026 30.293 44.7567 30.293 46.7238C30.293 48.6909 31.6304 50.3413 33.4446 50.8251C34.0813 50.9923 34.5366 51.5508 34.5366 52.2088V58.8215H55.8792C57.4514 58.8215 58.7249 57.548 58.7249 55.9758V55.9722Z" fill="#BAB7F8"/>
</svg>
