<svg width="70" height="69" viewBox="0 0 70 69" fill="none" xmlns="http://www.w3.org/2000/svg">
<path d="M8.02051 17.5556L8.02051 30.3611C8.02051 31.9327 9.29456 33.2068 10.8662 33.2068H59.2427C60.8143 33.2068 62.0884 31.9327 62.0884 30.3611V17.5556C62.0884 15.9839 60.8143 14.7099 59.2427 14.7099L10.8662 14.7099C9.29456 14.7099 8.02051 15.9839 8.02051 17.5556Z" fill="#73A9EA"/>
<path d="M19.7585 29.2939C22.7053 29.2939 25.0941 26.905 25.0941 23.9582C25.0941 21.0114 22.7053 18.6226 19.7585 18.6226C16.8117 18.6226 14.4229 21.0114 14.4229 23.9582C14.4229 26.905 16.8117 29.2939 19.7585 29.2939Z" fill="white"/>
<path d="M19.7616 23.4887C20.6142 23.4887 21.3053 22.7975 21.3053 21.9449C21.3053 21.0923 20.6142 20.4011 19.7616 20.4011C18.9089 20.4011 18.2178 21.0923 18.2178 21.9449C18.2178 22.7975 18.9089 23.4887 19.7616 23.4887Z" fill="#73A9EA"/>
<path d="M21.917 26.8038C20.7787 26.8038 18.7369 26.8038 17.5987 26.8038C17.1256 26.8038 16.7734 26.3449 16.9157 25.8932C17.2963 24.6909 18.4239 23.887 19.7578 23.887C21.0917 23.887 22.2193 24.6909 22.6 25.8932C22.7422 26.3449 22.3901 26.8038 21.917 26.8038Z" fill="#73A9EA"/>
<path d="M54.0839 22.5354C54.9679 22.5354 55.6846 21.8187 55.6846 20.9347C55.6846 20.0506 54.9679 19.334 54.0839 19.334H31.6742C30.7901 19.334 30.0735 20.0506 30.0735 20.9347C30.0735 21.8187 30.7901 22.5354 31.6742 22.5354H54.0839Z" fill="#94C6F7"/>
<path d="M54.0839 28.5825C54.9679 28.5825 55.6846 27.8658 55.6846 26.9818C55.6846 26.0978 54.9679 25.3811 54.0839 25.3811H31.6742C30.7901 25.3811 30.0735 26.0978 30.0735 26.9818C30.0735 27.8658 30.7901 28.5825 31.6742 28.5825H54.0839Z" fill="#94C6F7"/>
<path d="M8.02051 38.8983L8.02051 51.7039C8.02051 53.2755 9.29456 54.5496 10.8662 54.5496H59.2427C60.8143 54.5496 62.0884 53.2755 62.0884 51.7039V38.8983C62.0884 37.3267 60.8143 36.0526 59.2427 36.0526H10.8662C9.29456 36.0526 8.02051 37.3267 8.02051 38.8983Z" fill="#D1E6FF"/>
<path d="M19.7585 50.6366C22.7053 50.6366 25.0941 48.2478 25.0941 45.301C25.0941 42.3542 22.7053 39.9653 19.7585 39.9653C16.8117 39.9653 14.4229 42.3542 14.4229 45.301C14.4229 48.2478 16.8117 50.6366 19.7585 50.6366Z" fill="white"/>
<path d="M19.7616 44.8312C20.6142 44.8312 21.3053 44.14 21.3053 43.2874C21.3053 42.4348 20.6142 41.7437 19.7616 41.7437C18.9089 41.7437 18.2178 42.4348 18.2178 43.2874C18.2178 44.14 18.9089 44.8312 19.7616 44.8312Z" fill="#D1E6FF"/>
<path d="M21.917 48.1463C20.7787 48.1463 18.7369 48.1463 17.5987 48.1463C17.1256 48.1463 16.7734 47.6874 16.9157 47.2357C17.2963 46.0334 18.4239 45.2295 19.7578 45.2295C21.0917 45.2295 22.2193 46.0334 22.6 47.2357C22.7422 47.6874 22.3901 48.1463 21.917 48.1463Z" fill="#D1E6FF"/>
<path d="M54.0839 43.8781C54.9679 43.8781 55.6846 43.1615 55.6846 42.2775C55.6846 41.3934 54.9679 40.6768 54.0839 40.6768H31.6742C30.7901 40.6768 30.0735 41.3934 30.0735 42.2775C30.0735 43.1615 30.7901 43.8781 31.6742 43.8781H54.0839Z" fill="#EBF5FF"/>
<path d="M54.0839 49.9253C54.9679 49.9253 55.6846 49.2086 55.6846 48.3246C55.6846 47.4405 54.9679 46.7239 54.0839 46.7239H31.6742C30.7901 46.7239 30.0735 47.4405 30.0735 48.3246C30.0735 49.2086 30.7901 49.9253 31.6742 49.9253H54.0839Z" fill="#EBF5FF"/>
</svg>
