<svg width="70" height="69" viewBox="0 0 70 69" fill="none" xmlns="http://www.w3.org/2000/svg">
<path d="M52.0007 14.7097H17.8525C16.2809 14.7097 15.0068 15.9838 15.0068 17.5554V51.7035C15.0068 53.2752 16.2809 54.5492 17.8525 54.5492H52.0007C53.5723 54.5492 54.8463 53.2752 54.8463 51.7035V17.5554C54.8463 15.9838 53.5723 14.7097 52.0007 14.7097Z" fill="#D1E6FF"/>
<path d="M17.8525 14.7097H52.0007C52.7554 14.7097 53.4792 15.0095 54.0129 15.5432C54.5465 16.0769 54.8463 16.8007 54.8463 17.5554V23.2468H15.0068V17.5554C15.0068 16.8007 15.3066 16.0769 15.8403 15.5432C16.374 15.0095 17.0978 14.7097 17.8525 14.7097Z" fill="#3987F8"/>
<path d="M59.6484 61.6634C59.3446 61.6639 59.0437 61.6045 58.7629 61.4885C58.4821 61.3725 58.227 61.2023 58.0121 60.9875L50.9548 53.9267C50.5375 53.4899 50.3077 52.9071 50.3146 52.3031C50.3215 51.6991 50.5645 51.1217 50.9917 50.6945C51.4188 50.2674 51.9962 50.0244 52.6002 50.0175C53.2043 50.0106 53.787 50.2404 54.2238 50.6577L61.2846 57.715C61.6085 58.0383 61.8292 58.4506 61.9186 58.8994C62.0081 59.3483 61.9623 59.8136 61.787 60.2364C61.6118 60.6592 61.315 61.0205 60.9343 61.2746C60.5536 61.5286 60.1061 61.6639 59.6484 61.6634Z" fill="#2C6CCC"/>
<path d="M45.9327 57.3558C43.2211 57.3541 40.5941 56.4122 38.4992 54.6907C36.4042 52.9692 34.9709 50.5745 34.4436 47.9148C33.9162 45.255 34.3273 42.4947 35.6069 40.1041C36.8865 37.7135 38.9555 35.8405 41.4612 34.8042C43.9669 33.768 46.7544 33.6326 49.3487 34.4211C51.9431 35.2096 54.1838 36.8732 55.6891 39.1286C57.1944 41.3839 57.8711 44.0914 57.604 46.7897C57.3369 49.4881 56.1425 52.0103 54.2243 53.9268C53.1367 55.017 51.8441 55.8812 50.4211 56.4697C48.998 57.0582 47.4726 57.3594 45.9327 57.3558ZM45.9327 38.5388C44.292 38.5405 42.7027 39.1109 41.4354 40.1529C40.1681 41.1948 39.3012 42.6439 38.9824 44.2533C38.6635 45.8627 38.9125 47.5328 39.6868 48.9793C40.4612 50.4257 41.713 51.5589 43.2291 52.186C44.7452 52.8131 46.4318 52.8951 48.0017 52.4182C49.5715 51.9414 50.9274 50.935 51.8386 49.5706C52.7497 48.2062 53.1596 46.5681 52.9986 44.9354C52.8375 43.3026 52.1154 41.7762 50.9553 40.6161C50.2969 39.9554 49.514 39.4319 48.6518 39.0759C47.7897 38.7199 46.8654 38.5386 45.9327 38.5423V38.5388Z" fill="#3987F8"/>
</svg>
