<svg width="69" height="69" viewBox="0 0 69 69" fill="none" xmlns="http://www.w3.org/2000/svg">
<path d="M34.7965 33.7689C41.2382 33.7689 46.4603 28.5468 46.4603 22.1051C46.4603 15.6634 41.2382 10.4414 34.7965 10.4414C28.3548 10.4414 23.1328 15.6634 23.1328 22.1051C23.1328 28.5468 28.3548 33.7689 34.7965 33.7689Z" fill="#3987F8"/>
<path d="M50.074 58.818C41.818 58.818 27.7746 58.818 19.5186 58.818C15.6591 58.818 12.8668 55.0404 14.1011 51.3873C17.0642 42.6083 25.2099 36.7925 34.7963 36.7925C44.3827 36.7925 52.5284 42.6083 55.4915 51.3873C56.7258 55.044 53.9335 58.818 50.074 58.818Z" fill="#3987F8"/>
<path d="M54.3605 67.355C61.6292 67.355 67.5217 61.4625 67.5217 54.1937C67.5217 46.925 61.6292 41.0325 54.3605 41.0325C47.0917 41.0325 41.1992 46.925 41.1992 54.1937C41.1992 61.4625 47.0917 67.355 54.3605 67.355Z" fill="#15C480"/>
<path d="M54.8257 59.1021L61.1266 51.8537C61.8355 51.0383 61.7491 49.8025 60.9336 49.0937C60.1182 48.3848 58.8825 48.4712 58.1736 49.2867L51.8727 56.535C51.1638 57.3505 51.2502 58.5862 52.0657 59.2951C52.8812 60.0039 54.1169 59.9175 54.8257 59.1021Z" fill="white"/>
<path d="M54.7306 56.434L50.4547 52.158C49.6907 51.394 48.4519 51.394 47.6879 52.158C46.9239 52.9221 46.9239 54.1608 47.6879 54.9248L51.9638 59.2007C52.7278 59.9648 53.9666 59.9648 54.7306 59.2007C55.4946 58.4367 55.4946 57.198 54.7306 56.434Z" fill="white"/>
</svg>
