<svg width="70" height="69" viewBox="0 0 70 69" fill="none" xmlns="http://www.w3.org/2000/svg">
<path d="M54.8463 8.74438H15.0068C13.4352 8.74438 12.1611 10.0184 12.1611 11.5901V57.1209C12.1611 58.6926 13.4352 59.9666 15.0068 59.9666H54.8463C56.4179 59.9666 57.692 58.6926 57.692 57.1209V11.5901C57.692 10.0184 56.4179 8.74438 54.8463 8.74438Z" fill="#15C480"/>
<path d="M46.6653 22.261H23.1885C22.4027 22.261 21.7656 22.898 21.7656 23.6838V45.0264C21.7656 45.8122 22.4027 46.4493 23.1885 46.4493H46.6653C47.4511 46.4493 48.0882 45.8122 48.0882 45.0264V23.6838C48.0882 22.898 47.4511 22.261 46.6653 22.261Z" fill="#239A6D"/>
<path d="M39.3271 38.2677V30.4421C39.3271 29.4599 38.5309 28.6636 37.5486 28.6636C36.5663 28.6636 35.77 29.4599 35.77 30.4421V38.2677C35.77 39.25 36.5663 40.0463 37.5486 40.0463C38.5309 40.0463 39.3271 39.25 39.3271 38.2677Z" fill="white"/>
<path d="M37.5516 40.0466H41.8201C42.8024 40.0466 43.5986 39.2503 43.5986 38.2681C43.5986 37.2858 42.8024 36.4895 41.8201 36.4895H37.5516C36.5693 36.4895 35.773 37.2858 35.773 38.2681C35.773 39.2503 36.5693 40.0466 37.5516 40.0466Z" fill="white"/>
<path d="M31.0406 29.5376L26.4893 37.4207C26.006 38.2577 26.2928 39.3281 27.1299 39.8113C27.9669 40.2946 29.0373 40.0078 29.5206 39.1707L34.0719 31.2877C34.5551 30.4506 34.2683 29.3803 33.4313 28.897C32.5942 28.4137 31.5239 28.7005 31.0406 29.5376Z" fill="white"/>
<path d="M26.4926 31.2876L31.0439 39.1707C31.5272 40.0077 32.5975 40.2945 33.4346 39.8112C34.2716 39.328 34.5584 38.2576 34.0751 37.4206L29.5238 29.5375C29.0406 28.7004 27.9702 28.4136 27.1332 28.8969C26.2961 29.3802 26.0093 30.4505 26.4926 31.2876Z" fill="white"/>
<path d="M54.4904 67.0808C61.7591 67.0808 67.6516 61.1883 67.6516 53.9196C67.6516 46.6508 61.7591 40.7583 54.4904 40.7583C47.2216 40.7583 41.3291 46.6508 41.3291 53.9196C41.3291 61.1883 47.2216 67.0808 54.4904 67.0808Z" fill="#FFC82A"/>
<path d="M55.8741 57.515L51.5982 53.2391C50.8342 52.4751 49.5955 52.4751 48.8315 53.2391C48.0674 54.0031 48.0674 55.2418 48.8315 56.0059L53.1074 60.2818C53.8714 61.0458 55.1101 61.0458 55.8741 60.2818C56.6382 59.5178 56.6382 58.279 55.8741 57.515Z" fill="white"/>
<path d="M57.381 53.2401L53.1051 57.516C52.341 58.28 52.341 59.5188 53.1051 60.2828C53.8691 61.0468 55.1078 61.0468 55.8718 60.2828L60.1478 56.0069C60.9118 55.2428 60.9118 54.0041 60.1478 53.2401C59.3837 52.4761 58.145 52.4761 57.381 53.2401Z" fill="white"/>
<path d="M56.4473 58.8997V48.9398C56.4473 47.8593 55.5714 46.9834 54.4909 46.9834C53.4104 46.9834 52.5345 47.8593 52.5345 48.9398V58.8997C52.5345 59.9802 53.4104 60.8561 54.4909 60.8561C55.5714 60.8561 56.4473 59.9802 56.4473 58.8997Z" fill="white"/>
</svg>
