<svg width="69" height="69" viewBox="0 0 69 69" fill="none" xmlns="http://www.w3.org/2000/svg">
<path d="M20.6312 46.19C28.0965 46.19 34.1482 40.1382 34.1482 32.673C34.1482 25.2078 28.0965 19.156 20.6312 19.156C13.166 19.156 7.11426 25.2078 7.11426 32.673C7.11426 40.1382 13.166 46.19 20.6312 46.19Z" fill="#15C480"/>
<path d="M46.9539 34.8073H25.6113C24.0397 34.8073 22.7656 36.0813 22.7656 37.6529V58.9955C22.7656 60.5671 24.0397 61.8412 25.6113 61.8412H46.9539C48.5255 61.8412 49.7996 60.5671 49.7996 58.9955V37.6529C49.7996 36.0813 48.5255 34.8073 46.9539 34.8073Z" fill="#3987F8"/>
<path d="M60.5493 22.2395L39.2067 8.0111C38.9923 7.8681 38.7432 7.78599 38.4858 7.77352C38.2285 7.76105 37.9726 7.8187 37.7454 7.94031C37.5183 8.06192 37.3284 8.24292 37.1961 8.46401C37.0638 8.68509 36.994 8.93796 36.9941 9.19562V37.6524C36.994 37.9101 37.0638 38.1629 37.1961 38.384C37.3284 38.6051 37.5183 38.7861 37.7454 38.9077C37.9726 39.0293 38.2285 39.087 38.4858 39.0745C38.7432 39.062 38.9923 38.9799 39.2067 38.8369L60.5493 24.6085C60.7444 24.4786 60.9045 24.3025 61.0152 24.0959C61.1259 23.8892 61.1838 23.6584 61.1838 23.424C61.1838 23.1896 61.1259 22.9588 61.0152 22.7521C60.9045 22.5455 60.7444 22.3694 60.5493 22.2395Z" fill="#FFC82A"/>
</svg>
