<svg width="69" height="69" viewBox="0 0 69 69" fill="none" xmlns="http://www.w3.org/2000/svg">
<path d="M17.7216 9.19629H54.7155C56.2877 9.19629 57.5611 10.4697 57.5611 12.042V57.5728C57.5611 59.1451 56.2877 60.4185 54.7155 60.4185H17.7216C14.5807 60.4185 12.0303 57.8681 12.0303 54.7271V14.8876C12.0303 11.7467 14.5807 9.19629 17.7216 9.19629Z" fill="#7666EF"/>
<path d="M17.7216 9.19629H20.5673V60.4185H17.7216C14.5807 60.4185 12.0303 57.8681 12.0303 54.7271V14.8876C12.0303 11.7467 14.5807 9.19629 17.7216 9.19629Z" fill="#5A53D2"/>
<path d="M43.5105 22.7133H34.6178C33.3408 22.7133 32.3057 23.7484 32.3057 25.0254C32.3057 26.3023 33.3408 27.3375 34.6178 27.3375H43.5105C44.7875 27.3375 45.8226 26.3023 45.8226 25.0254C45.8226 23.7484 44.7875 22.7133 43.5105 22.7133Z" fill="#BAB7F8"/>
</svg>
