<svg width="69" height="70" viewBox="0 0 69 70" fill="none" xmlns="http://www.w3.org/2000/svg">
<path d="M34.1492 59.2697C47.508 59.2697 58.3375 48.4403 58.3375 35.0815C58.3375 21.7226 47.508 10.8932 34.1492 10.8932C20.7904 10.8932 9.96094 21.7226 9.96094 35.0815C9.96094 48.4403 20.7904 59.2697 34.1492 59.2697Z" fill="#FFC82A"/>
<path d="M16.5489 49.0858L34.1494 59.2698H13.2372C10.701 59.2698 9.43115 56.2036 11.2239 54.4108L16.5489 49.0858Z" fill="#FFC82A"/>
<path d="M26.3242 32.9577C27.8958 32.9577 29.1699 31.6837 29.1699 30.112C29.1699 28.5404 27.8958 27.2664 26.3242 27.2664C24.7526 27.2664 23.4785 28.5404 23.4785 30.112C23.4785 31.6837 24.7526 32.9577 26.3242 32.9577Z" fill="#25282B"/>
<path d="M41.9746 32.9577C43.5462 32.9577 44.8203 31.6837 44.8203 30.112C44.8203 28.5404 43.5462 27.2664 41.9746 27.2664C40.403 27.2664 39.1289 28.5404 39.1289 30.112C39.1289 31.6837 40.403 32.9577 41.9746 32.9577Z" fill="#25282B"/>
<path d="M34.149 48.6089C29.2545 48.6089 24.8152 45.8415 22.5671 41.388C22.0371 40.3351 22.4569 39.051 23.5098 38.521C24.5627 37.991 25.8468 38.4107 26.3768 39.4636C27.8957 42.4693 30.873 44.3368 34.1455 44.3368C37.418 44.3368 40.3989 42.4693 41.9142 39.4636C42.4442 38.4107 43.7283 37.9874 44.7812 38.521C45.8341 39.051 46.2574 40.3351 45.7238 41.388C43.4757 45.8415 39.0365 48.6089 34.1419 48.6089H34.149Z" fill="#25282B"/>
</svg>
