<svg width="69" height="70" viewBox="0 0 69 70" fill="none" xmlns="http://www.w3.org/2000/svg">
<path d="M60.0171 13.739H8.79491C8.0091 13.739 7.37207 14.376 7.37207 15.1619V55.0014C7.37207 55.7872 8.0091 56.4242 8.79491 56.4242H60.0171C60.8029 56.4242 61.44 55.7872 61.44 55.0014V15.1619C61.44 14.376 60.8029 13.739 60.0171 13.739Z" fill="#B86800"/>
<path d="M8.79491 13.739H23.7347V26.5446H7.37207V15.1619C7.37207 14.3757 8.00879 13.739 8.79491 13.739Z" fill="#FFC82A"/>
<path d="M45.0771 13.739H60.017C60.8031 13.739 61.4398 14.3757 61.4398 15.1619V26.5446H45.0771V13.739Z" fill="#CA7300"/>
<path d="M42.5873 13.739H26.2246V26.5446H42.5873V13.739Z" fill="#FFAD24"/>
<path d="M7.37207 43.6187H23.7347V56.4242H8.79491C8.00879 56.4242 7.37207 55.7875 7.37207 55.0014V43.6187Z" fill="#FFC82A"/>
<path d="M45.0771 43.6187H61.4398V55.0014C61.4398 55.7875 60.8031 56.4242 60.017 56.4242H45.0771V43.6187Z" fill="#CA7300"/>
<path d="M42.5873 43.6187H26.2246V56.4242H42.5873V43.6187Z" fill="#FFAD24"/>
<path d="M52.014 28.6788H35.6514V41.4844H52.014V28.6788Z" fill="#FFC82A"/>
<path d="M33.1615 28.6788H16.7988V41.4844H33.1615V28.6788Z" fill="#CA7300"/>
<path d="M14.3084 28.6788H7.37207V41.4844H14.3084V28.6788Z" fill="#FFAD24"/>
<path d="M61.4393 28.6788H54.5029V41.4844H61.4393V28.6788Z" fill="#FFAD24"/>
</svg>
