<svg width="69" height="70" viewBox="0 0 69 70" fill="none" xmlns="http://www.w3.org/2000/svg">
<path d="M56.0616 38.6457C55.4711 38.6457 54.8771 38.4216 54.4253 37.9698L47.3681 30.9126C46.4646 30.0091 46.4646 28.5435 47.3681 27.64C48.2716 26.7365 49.7371 26.7365 50.6406 27.64L57.6979 34.6973C58.6014 35.6008 58.6014 37.0663 57.6979 37.9698C57.2461 38.4216 56.6556 38.6457 56.0616 38.6457Z" fill="#2C6CCC"/>
<path d="M42.3457 34.3345C39.3435 34.3345 36.3413 33.1926 34.0541 30.9054C29.4833 26.3346 29.4833 18.8967 34.0541 14.3258C36.2702 12.1097 39.2119 10.8932 42.3457 10.8932C45.4795 10.8932 48.4213 12.1133 50.6373 14.3258C55.2082 18.8967 55.2082 26.3346 50.6373 30.9054C48.3501 33.1926 45.3479 34.3345 42.3457 34.3345ZM42.3457 15.5174C40.4498 15.5174 38.6677 16.2573 37.3267 17.5983C35.9856 18.9393 35.2458 20.7215 35.2458 22.6174C35.2458 24.5133 35.9856 26.2954 37.3267 27.6364C40.0941 30.4039 44.5974 30.4039 47.3648 27.6364C48.7058 26.2954 49.4421 24.5133 49.4421 22.6174C49.4421 20.7215 48.7023 18.9393 47.3612 17.5983C46.0202 16.2573 44.2381 15.5174 42.3422 15.5174H42.3457Z" fill="#3987F8"/>
<path d="M18.5341 15.1617H12.8427C11.2711 15.1617 9.99707 16.4358 9.99707 18.0074V56.4241C9.99707 57.9957 11.2711 59.2698 12.8427 59.2698H18.5341C20.1057 59.2698 21.3798 57.9957 21.3798 56.4241V18.0074C21.3798 16.4358 20.1057 15.1617 18.5341 15.1617Z" fill="#2C6CCC"/>
<path d="M34.8974 37.9271H29.206C27.6344 37.9271 26.3604 39.2012 26.3604 40.7728V56.424C26.3604 57.9957 27.6344 59.2697 29.206 59.2697H34.8974C36.469 59.2697 37.7431 57.9957 37.7431 56.424V40.7728C37.7431 39.2012 36.469 37.9271 34.8974 37.9271Z" fill="#3987F8"/>
<path d="M51.2597 47.8871H45.5683C43.9967 47.8871 42.7227 49.1611 42.7227 50.7328V56.4241C42.7227 57.9957 43.9967 59.2698 45.5683 59.2698H51.2597C52.8313 59.2698 54.1054 57.9957 54.1054 56.4241V50.7328C54.1054 49.1611 52.8313 47.8871 51.2597 47.8871Z" fill="#73A9EA"/>
</svg>
