<svg width="69" height="69" viewBox="0 0 69 69" fill="none" xmlns="http://www.w3.org/2000/svg">
<path d="M24.8358 41.4697C34.2655 41.4697 41.9099 33.8254 41.9099 24.3956C41.9099 14.9659 34.2655 7.32153 24.8358 7.32153C15.406 7.32153 7.76172 14.9659 7.76172 24.3956C7.76172 33.8254 15.406 41.4697 24.8358 41.4697Z" fill="#93C5F6"/>
<path d="M12.4147 34.2805L24.8361 41.4694H10.3765C8.47344 41.4694 7.5237 39.1715 8.86828 37.8269L12.4147 34.2805Z" fill="#93C5F6"/>
<path d="M41.1986 61.3893C52.5928 61.3893 61.8297 52.1524 61.8297 40.7581C61.8297 29.3638 52.5928 20.127 41.1986 20.127C29.8043 20.127 20.5674 29.3638 20.5674 40.7581C20.5674 52.1524 29.8043 61.3893 41.1986 61.3893Z" fill="#3986F7"/>
<path d="M56.2102 52.7029L41.1992 61.3893H58.0279C60.5641 61.3893 61.834 58.3231 60.0412 56.5303L56.2137 52.7029H56.2102Z" fill="#3986F7"/>
<path d="M32.3057 33.644H47.9569C48.743 33.644 49.3797 34.2808 49.3797 35.0669V42.1811C49.3797 46.8942 45.5558 50.7181 40.8427 50.7181H39.4198C34.7067 50.7181 30.8828 46.8942 30.8828 42.1811V35.0669C30.8828 34.2808 31.5195 33.644 32.3057 33.644Z" fill="white"/>
<path d="M50.0909 37.9126C51.2683 37.9126 52.2251 38.8694 52.2251 40.0468C52.2251 41.2242 51.2683 42.1811 50.0909 42.1811H46.0322V37.9126H50.0909ZM50.0909 35.0669H43.1865V45.0268H50.0909C52.8405 45.0268 55.0708 42.7965 55.0708 40.0468C55.0708 37.2972 52.8405 35.0669 50.0909 35.0669Z" fill="white"/>
</svg>
