<svg width="69" height="69" viewBox="0 0 69 69" fill="none" xmlns="http://www.w3.org/2000/svg">
<path d="M49.9304 23.247V14.71H18.6279V23.247C18.6279 29.5324 23.7253 34.6297 30.0106 34.6297C23.7253 34.6297 18.6279 39.727 18.6279 46.0124V54.5495H49.9304V46.0124C49.9304 39.727 44.8331 34.6297 38.5477 34.6297C44.8331 34.6297 49.9304 29.5324 49.9304 23.247Z" fill="white"/>
<path d="M17.2054 14.71L51.3535 14.71C52.9252 14.71 54.1992 13.4359 54.1992 11.8643V10.4414C54.1992 8.86982 52.9252 7.59576 51.3535 7.59576L17.2054 7.59576C15.6338 7.59576 14.3597 8.86982 14.3597 10.4414V11.8643C14.3597 13.4359 15.6338 14.71 17.2054 14.71Z" fill="#3987F8"/>
<path d="M17.2054 61.6636L51.3535 61.6636C52.9252 61.6636 54.1992 60.3895 54.1992 58.8179V57.3951C54.1992 55.8234 52.9252 54.5494 51.3535 54.5494L17.2054 54.5494C15.6338 54.5494 14.3597 55.8234 14.3597 57.3951V58.8179C14.3597 60.3895 15.6338 61.6636 17.2054 61.6636Z" fill="#3987F8"/>
<path d="M36.7685 43.1668V31.4284C41.1082 31.4284 44.7222 28.3195 45.5048 24.211C45.672 23.3395 44.989 22.5356 44.1033 22.5356H24.4574C23.5717 22.5356 22.8887 23.3395 23.0559 24.211C23.8385 28.323 27.4525 31.4284 31.7922 31.4284V43.1668C26.8798 43.1668 22.8994 47.1472 22.8994 52.0596V54.5495H45.6648V52.0596C45.6648 47.1472 41.6845 43.1668 36.7721 43.1668H36.7685Z" fill="#FFC82A"/>
</svg>
