<svg width="69" height="69" viewBox="0 0 69 69" fill="none" xmlns="http://www.w3.org/2000/svg">
<path d="M49.8005 23.247V14.71H18.498V23.247C18.498 29.5324 23.5954 34.6297 29.8808 34.6297C23.5954 34.6297 18.498 39.727 18.498 46.0124V54.5495H49.8005V46.0124C49.8005 39.727 44.7032 34.6297 38.4178 34.6297C44.7032 34.6297 49.8005 29.5324 49.8005 23.247Z" fill="#D1E6FF"/>
<path d="M17.0755 14.71L51.2237 14.71C52.7953 14.71 54.0693 13.4359 54.0693 11.8643V10.4414C54.0693 8.86982 52.7953 7.59576 51.2237 7.59576L17.0755 7.59576C15.5039 7.59576 14.2298 8.86982 14.2298 10.4414V11.8643C14.2298 13.4359 15.5039 14.71 17.0755 14.71Z" fill="#3987F8"/>
<path d="M17.0755 61.6636L51.2237 61.6636C52.7953 61.6636 54.0693 60.3895 54.0693 58.8179V57.3951C54.0693 55.8234 52.7953 54.5494 51.2237 54.5494L17.0755 54.5494C15.5039 54.5494 14.2298 55.8234 14.2298 57.3951V58.8179C14.2298 60.3895 15.5039 61.6636 17.0755 61.6636Z" fill="#3987F8"/>
<path d="M36.6387 43.1668V31.4284C40.9783 31.4284 44.5923 28.3195 45.3749 24.211C45.5421 23.3395 44.8591 22.5356 43.9734 22.5356H24.3275C23.4418 22.5356 22.7589 23.3395 22.926 24.211C23.7086 28.323 27.3226 31.4284 31.6623 31.4284V43.1668C26.7499 43.1668 22.7695 47.1472 22.7695 52.0596V54.5495H45.535V52.0596C45.535 47.1472 41.5546 43.1668 36.6422 43.1668H36.6387Z" fill="#94C6F7"/>
</svg>
