<svg width="69" height="69" viewBox="0 0 69 69" fill="none" xmlns="http://www.w3.org/2000/svg">
<path d="M30.5333 44.5468C31.1416 44.3725 31.5613 43.8176 31.5613 43.1845V37.4789H25.8558C25.2226 37.4789 24.6641 37.0591 24.4934 36.4509C24.0452 34.8822 22.6046 33.7368 20.8936 33.7368C19.1826 33.7368 17.742 34.8858 17.2938 36.4509C17.1195 37.0591 16.5646 37.4789 15.9315 37.4789H10.2188V55.9758C10.2188 57.548 11.4922 58.8215 13.0644 58.8215H31.5613V53.1159C31.5613 52.4827 31.1416 51.9243 30.5333 51.7535C28.9647 51.3053 27.8193 49.8647 27.8193 48.1537C27.8193 46.4428 28.9682 45.0021 30.5333 44.554V44.5468Z" fill="#FFAD24"/>
<path d="M58.5955 7.59546H40.0986V13.301C40.0986 13.9342 40.5184 14.4927 41.1266 14.6634C42.6953 15.1116 43.8407 16.5522 43.8407 18.2632C43.8407 19.9742 42.6918 21.4148 41.1266 21.863C40.5184 22.0373 40.0986 22.5922 40.0986 23.2253V28.9309H45.8042C46.4374 28.9309 46.9958 29.3507 47.1666 29.9589C47.6148 31.5276 49.0554 32.673 50.7664 32.673C52.4773 32.673 53.918 31.5241 54.3662 29.9589C54.5405 29.3507 55.0954 28.9309 55.7285 28.9309H61.4341V10.4411C61.4341 8.8689 60.1607 7.59546 58.5884 7.59546H58.5955Z" fill="#FFAD24"/>
<path d="M32.5893 23.2042C31.9811 23.0299 31.5613 22.475 31.5613 21.8418V16.1362H13.0644C11.4922 16.1362 10.2188 17.4097 10.2188 18.9819V37.4788H15.9243C16.5575 37.4788 17.116 37.0591 17.2867 36.4508C17.7349 34.8821 19.1755 33.7368 20.8865 33.7368C22.5975 33.7368 24.0381 34.8857 24.4863 36.4508C24.6606 37.0591 25.2155 37.4788 25.8486 37.4788H31.5542V31.7732C31.5542 31.1401 31.974 30.5816 32.5822 30.4109C34.1509 29.9627 35.2963 28.522 35.2963 26.8111C35.2963 25.1001 34.1474 23.6595 32.5822 23.2113L32.5893 23.2042Z" fill="#FFDA67"/>
<path d="M52.9037 55.972V37.4751H47.1981C46.565 37.4751 46.0065 37.8948 45.8358 38.5031C45.3876 40.0718 43.9469 41.2172 42.236 41.2172C40.525 41.2172 39.0844 40.0682 38.6362 38.5031C38.4619 37.8948 37.907 37.4751 37.2738 37.4751H31.5682V43.1807C31.5682 43.8138 31.1485 44.3723 30.5402 44.5431C28.9716 44.9912 27.8262 46.4319 27.8262 48.1428C27.8262 49.8538 28.9751 51.2944 30.5402 51.7426C31.1485 51.9169 31.5682 52.4718 31.5682 53.105V58.8106H50.0652C51.6374 58.8106 52.9108 57.5371 52.9108 55.9649L52.9037 55.972Z" fill="#FFDA67"/>
</svg>
