<svg width="70" height="69" viewBox="0 0 70 69" fill="none" xmlns="http://www.w3.org/2000/svg">
<path d="M35.0553 33.4947C41.497 33.4947 46.7191 28.2727 46.7191 21.831C46.7191 15.3893 41.497 10.1672 35.0553 10.1672C28.6136 10.1672 23.3916 15.3893 23.3916 21.831C23.3916 28.2727 28.6136 33.4947 35.0553 33.4947Z" fill="#3987F8"/>
<path d="M50.3328 58.5439C42.0768 58.5439 28.0334 58.5439 19.7774 58.5439C15.9179 58.5439 13.1256 54.7662 14.3599 51.1131C17.323 42.3342 25.4687 36.5183 35.0551 36.5183C44.6415 36.5183 52.7872 42.3342 55.7503 51.1131C56.9846 54.7698 54.1923 58.5439 50.3328 58.5439Z" fill="#3987F8"/>
<path d="M54.6193 67.0806C61.888 67.0806 67.7805 61.1881 67.7805 53.9193C67.7805 46.6506 61.888 40.7581 54.6193 40.7581C47.3505 40.7581 41.458 46.6506 41.458 53.9193C41.458 61.1881 47.3505 67.0806 54.6193 67.0806Z" fill="#F0464F"/>
<path d="M56.885 58.9498C57.649 59.7138 58.8877 59.7138 59.6518 58.9498C60.4158 58.1858 60.4158 56.947 59.6518 56.183L52.3576 48.8888C51.5935 48.1248 50.3548 48.1248 49.5908 48.8888C48.8268 49.6528 48.8268 50.8915 49.5908 51.6556L56.885 58.9498Z" fill="white"/>
<path d="M49.5893 56.1843C48.8252 56.9483 48.8252 58.1871 49.5893 58.9511C50.3533 59.7151 51.592 59.7151 52.356 58.9511L59.6503 51.6569C60.4143 50.8928 60.4143 49.6541 59.6503 48.8901C58.8862 48.1261 57.6475 48.1261 56.8835 48.8901L49.5893 56.1843Z" fill="white"/>
</svg>
