<svg width="69" height="69" viewBox="0 0 69 69" fill="none" xmlns="http://www.w3.org/2000/svg">
<path d="M51.562 10.281L40.7058 12.4508C39.0517 12.7817 37.5364 13.5927 36.3448 14.7843L16.4072 34.7218L33.8192 52.1338L53.7568 32.1963C54.9484 31.0047 55.7594 29.4858 56.0902 27.8353L58.26 16.979C59.0568 12.9951 55.546 9.48422 51.562 10.281Z" fill="#CFD1D5"/>
<path d="M26.2105 53.2293L15.3115 42.3304C13.814 40.8328 14.4187 38.2859 16.4249 37.6172L18.584 36.8987L31.6422 49.9568L30.9201 52.1195C30.2513 54.1257 27.7044 54.7269 26.2069 53.2329L26.2105 53.2293Z" fill="#9FA4AB"/>
<path d="M16.6102 21.4612L11.89 26.1814C10.7802 27.2912 10.7802 29.0947 11.89 30.2045L16.4075 34.722L30.0098 21.1197L18.7481 20.6288C17.9513 20.5932 17.1758 20.8956 16.6138 21.4612H16.6102Z" fill="#9FA4AB"/>
<path d="M47.0802 51.9313L42.3599 56.6516C41.2501 57.7614 39.4467 57.7614 38.3368 56.6516L33.8193 52.1341L47.4217 38.5317L47.9126 49.7935C47.9481 50.5903 47.6458 51.3657 47.0802 51.9278V51.9313Z" fill="#9FA4AB"/>
<path d="M40.4533 34.1349C43.793 34.1349 46.5004 31.4275 46.5004 28.0878C46.5004 24.7481 43.793 22.0408 40.4533 22.0408C37.1136 22.0408 34.4062 24.7481 34.4062 28.0878C34.4062 31.4275 37.1136 34.1349 40.4533 34.1349Z" fill="#F9F9FA"/>
<path d="M18.716 49.8255C16.9126 48.022 13.9886 48.022 12.1852 49.8255C10.3817 51.6289 10.0509 55.1078 9.99757 57.0855C9.97623 57.8965 10.6414 58.5653 11.4524 58.5404C13.4302 58.487 16.941 58.1278 18.7125 56.3528C20.5159 54.5493 20.5159 51.6254 18.7125 49.8219L18.716 49.8255Z" fill="#B6B9C0"/>
</svg>
