<svg width="25" height="25" viewBox="0 0 25 25" fill="none" xmlns="http://www.w3.org/2000/svg">
<rect x="0.904297" y="0.481201" width="23.9037" height="23.9037" rx="5.12222" fill="#6A7081"/>
<path d="M16.1996 7.20435H9.51222C8.47354 7.20435 7.62695 8.05094 7.62695 9.08961V15.777C7.62695 16.8156 8.47354 17.6622 9.51222 17.6622H16.1996C17.2382 17.6622 18.0848 16.8156 18.0848 15.777V9.08961C18.0848 8.05094 17.2382 7.20435 16.1996 7.20435ZM16.1996 15.0193C16.011 15.3394 15.6802 15.528 15.3103 15.528H10.4726C10.092 15.528 9.74343 15.3181 9.56201 14.9837C9.38416 14.6458 9.40195 14.2403 9.61181 13.9237L10.2272 12.9989C10.4193 12.7107 10.7394 12.54 11.0845 12.54C11.4295 12.54 11.7496 12.7107 11.9417 12.9989L12.4504 13.7601L13.361 12.1203C13.5424 11.793 13.8874 11.5902 14.2645 11.5902C14.6416 11.5902 14.983 11.793 15.168 12.1203L16.2102 13.9948C16.3881 14.3185 16.3845 14.6992 16.196 15.0193H16.1996Z" fill="white"/>
</svg>
