<svg width="25" height="25" viewBox="0 0 25 25" fill="none" xmlns="http://www.w3.org/2000/svg">
<rect x="0.904297" y="0.79248" width="23.9037" height="23.9037" rx="5.12222" fill="#6A7081"/>
<path d="M17.1249 8.54693C16.0186 7.42289 14.5353 6.80396 12.9489 6.80396C9.67988 6.80396 6.97293 9.46466 6.91602 12.7336C6.88756 14.3237 7.48159 15.8176 8.58785 16.9417C9.69411 18.0657 11.1774 18.6847 12.7639 18.6847C16.0329 18.6847 18.7398 16.024 18.7967 12.755C18.8252 11.165 18.2311 9.67098 17.1249 8.54693ZM11.3268 14.1672H10.1174V11.3215H11.3268V14.1672ZM13.4611 15.59H12.2517V9.89863H13.4611V15.59ZM15.5953 14.5229H14.3859V10.9658H15.5953V14.5229Z" fill="white"/>
</svg>
