<svg width="25" height="25" viewBox="0 0 25 25" fill="none" xmlns="http://www.w3.org/2000/svg">
<rect x="0.904297" y="0.103516" width="23.9037" height="23.9037" rx="5.12222" fill="#6A7081"/>
<path d="M8.60374 14.4195C8.45434 14.5689 8.24802 14.8641 7.92788 15.8423C7.87739 15.997 7.8642 16.1614 7.88939 16.3222C7.91458 16.4829 7.97743 16.6354 8.07283 16.7672C8.16822 16.899 8.29343 17.0064 8.43824 17.0806C8.58306 17.1547 8.74338 17.1936 8.90608 17.194C9.01616 17.1939 9.12548 17.1759 9.22977 17.1407C10.1902 16.8277 10.489 16.6142 10.6526 16.4648C10.922 16.195 11.0731 15.8292 11.0728 15.448C11.0724 15.0668 10.9206 14.7012 10.6508 14.4319C10.381 14.1625 10.0153 14.0114 9.63403 14.0118C9.25279 14.0122 8.8873 14.1638 8.61797 14.4337L8.60374 14.4195Z" fill="white"/>
<path d="M17.6772 7.37968C17.5573 7.25913 17.4095 7.17006 17.2469 7.12041C17.0843 7.07076 16.912 7.06206 16.7452 7.0951L16.3539 7.17339C14.8928 7.4621 13.5197 8.08951 12.3451 9.00526C11.7687 8.65421 11.0911 8.50687 10.4209 8.58685C9.75076 8.66683 9.12686 8.96953 8.64924 9.44638L8.19751 9.8981C8.06853 10.0254 7.97553 10.1846 7.9279 10.3595C7.88027 10.5344 7.87973 10.7187 7.92632 10.8939C7.9729 11.069 8.06496 11.2287 8.19316 11.3568C8.32137 11.4849 8.48118 11.5769 8.65637 11.6233L9.90135 11.979C9.86937 12.1433 9.87829 12.3129 9.92729 12.473C9.9763 12.633 10.0639 12.7785 10.1824 12.8968L12.1779 14.8922C12.3675 15.0801 12.6225 15.1872 12.8893 15.191C12.9539 15.188 13.0182 15.1797 13.0814 15.1662L13.4371 16.4183C13.4972 16.6372 13.6276 16.8303 13.8082 16.9679C13.9888 17.1054 14.2096 17.1798 14.4366 17.1795C14.7039 17.1744 14.9589 17.066 15.148 16.8771L15.5998 16.4254C16.0761 15.9458 16.3778 15.3202 16.4564 14.6489C16.5351 13.9775 16.3863 13.2992 16.0338 12.7225C16.9494 11.55 17.578 10.1795 17.8693 8.72072L17.9475 8.32589C17.9858 8.15816 17.9811 7.98349 17.9339 7.81807C17.8866 7.65265 17.7983 7.50185 17.6772 7.37968ZM14.4331 9.69892C14.616 9.69892 14.7948 9.75314 14.9469 9.85476C15.099 9.95639 15.2176 10.1008 15.2876 10.2698C15.3576 10.4388 15.3759 10.6248 15.3401 10.8042C15.3045 10.9836 15.2164 11.1484 15.087 11.2777C14.9578 11.4071 14.7929 11.4951 14.6135 11.5308C14.4342 11.5665 14.2481 11.5482 14.0792 11.4782C13.9102 11.4082 13.7657 11.2897 13.6641 11.1376C13.5625 10.9855 13.5082 10.8067 13.5082 10.6238C13.5082 10.5017 13.5324 10.3808 13.5793 10.2682C13.6263 10.1555 13.695 10.0532 13.7816 9.96727C13.8682 9.88129 13.9711 9.81332 14.0841 9.76726C14.1971 9.72121 14.3181 9.69798 14.4402 9.69892H14.4331Z" fill="white"/>
</svg>
