<svg width="192" height="192" viewBox="0 0 192 192" fill="none" xmlns="http://www.w3.org/2000/svg">
<path d="M82.1425 36.01L22.1625 140.01C16.0125 150.68 23.7125 164 36.0225 164H155.973C168.283 164 175.983 150.67 169.833 140.01L109.863 36.01C103.703 25.33 88.3025 25.33 82.1425 36.01Z" fill="#FFC82A"/>
<path d="M105.002 83C105.002 78.0294 100.973 74 96.002 74C91.0314 74 87.002 78.0294 87.002 83V107C87.002 111.971 91.0314 116 96.002 116C100.973 116 105.002 111.971 105.002 107V83Z" fill="#F0464F"/>
<path d="M96.002 142C100.973 142 105.002 137.971 105.002 133C105.002 128.029 100.973 124 96.002 124C91.0314 124 87.002 128.029 87.002 133C87.002 137.971 91.0314 142 96.002 142Z" fill="#F0464F"/>
</svg>
