<svg width="36" height="36" viewBox="0 0 36 36" fill="none" xmlns="http://www.w3.org/2000/svg">
<path d="M26.0155 18V17.8031C26.0155 17.2195 26.242 16.657 26.647 16.238L27.7326 15.1144C28.0813 14.753 28.1488 14.2045 27.8985 13.77L26.6118 11.5425C26.3601 11.108 25.8524 10.8914 25.3645 11.0138L23.8415 11.3934C23.2719 11.5355 22.6701 11.4497 22.1638 11.1544L21.8277 10.9589C21.3257 10.6664 20.9573 10.1925 20.797 9.63422L20.3652 8.12812C20.2274 7.64578 19.7859 7.3125 19.2838 7.3125H16.7104C16.2084 7.3125 15.7668 7.64578 15.629 8.12812L15.1973 9.63844C15.0341 10.208 14.6545 10.6903 14.1384 10.9786C14.0484 11.0292 13.9584 11.0812 13.8712 11.1347C13.3579 11.4469 12.742 11.5411 12.1598 11.3948L10.634 11.0138C10.1474 10.8914 9.63836 11.108 9.38664 11.5425L8.09992 13.77C7.8482 14.2045 7.9157 14.753 8.26586 15.1144L9.35148 16.238C9.75789 16.6584 9.98429 17.2195 9.98429 17.8031V18.1955C9.98429 18.7791 9.75789 19.3416 9.35148 19.7606L8.26586 20.8842C7.91711 21.2456 7.84961 21.7941 8.09992 22.2286L9.38664 24.4561C9.63836 24.8906 10.146 25.1072 10.634 24.9848L12.1598 24.6038C12.742 24.4575 13.3593 24.5517 13.8712 24.8639C14.1018 25.0045 14.3395 25.1325 14.5841 25.2492C14.8021 25.3533 14.9652 25.5445 15.0313 25.778L15.6304 27.8705C15.7682 28.3528 16.2098 28.6861 16.7118 28.6861H19.2852C19.7873 28.6861 20.2288 28.3528 20.3666 27.8705L20.7984 26.3602C20.9615 25.7906 21.3412 25.3069 21.8573 25.02C21.9473 24.9694 22.0373 24.9173 22.1245 24.8639C22.6377 24.5517 23.2537 24.4589 23.8359 24.6038L25.3616 24.9848C25.8482 25.1072 26.3573 24.8906 26.609 24.4561L27.8957 22.2286C28.1474 21.7941 28.0799 21.2456 27.7298 20.8842L26.6441 19.7606C26.2377 19.3402 26.0113 18.7791 26.0113 18.1955V17.9986L26.0155 18Z" fill="#3987F8"/>
<path d="M18 22.9922C15.248 22.9922 13.0078 20.7534 13.0078 18C13.0078 15.2466 15.248 13.0078 18 13.0078C20.752 13.0078 22.9922 15.2466 22.9922 18C22.9922 20.7534 20.752 22.9922 18 22.9922ZM18 14.8359C16.2548 14.8359 14.8359 16.2548 14.8359 18C14.8359 19.7452 16.2548 21.1641 18 21.1641C19.7452 21.1641 21.1641 19.7452 21.1641 18C21.1641 16.2548 19.7452 14.8359 18 14.8359Z" fill="white"/>
</svg>
