<svg width="20" height="20" viewBox="0 0 20 20" fill="none" xmlns="http://www.w3.org/2000/svg">
<path d="M10.0003 3.04199C8.62408 3.04199 7.27877 3.45009 6.13448 4.21468C4.99019 4.97928 4.09832 6.06598 3.57167 7.33744C3.04501 8.60892 2.90721 10.0081 3.1757 11.3578C3.44418 12.7076 4.10691 13.9474 5.08004 14.9206C6.05318 15.8937 7.29304 16.5565 8.64283 16.8249C9.99258 17.0934 11.3917 16.9556 12.6632 16.4289C13.9347 15.9022 15.0214 15.0105 15.786 13.8662C16.5506 12.7219 16.9587 11.3765 16.9587 10.0003C16.9564 8.15552 16.2227 6.38696 14.9182 5.0825C13.6137 3.77803 11.8451 3.0442 10.0003 3.04199ZM10.0003 15.542C8.90433 15.542 7.83287 15.217 6.92154 14.6081C6.01022 13.9992 5.29993 13.1336 4.8805 12.121C4.46106 11.1083 4.35132 9.99417 4.56514 8.91917C4.77897 7.84419 5.30676 6.85677 6.08177 6.08175C6.85679 5.30673 7.84422 4.77895 8.91917 4.56513C9.99417 4.3513 11.1084 4.46103 12.121 4.88048C13.1337 5.29991 13.9992 6.01017 14.6081 6.92149C15.217 7.83281 15.542 8.90425 15.542 10.0003C15.5398 11.4693 14.9552 12.8777 13.9164 13.9164C12.8777 14.9552 11.4694 15.5398 10.0003 15.542Z" fill="#6A7081"/>
<path d="M12.1543 6.84277L10.0002 9.00116L7.84596 6.84277L6.8418 7.84695L9.00016 10.0011L6.8418 12.1552L7.84596 13.1595L10.0002 11.0011L12.1543 13.1595L13.1585 12.1552L11.0043 10.0011L13.1585 7.84695L12.1543 6.84277Z" fill="#6A7081"/>
</svg>
