<svg width="21" height="20" viewBox="0 0 21 20" fill="none" xmlns="http://www.w3.org/2000/svg">
<path d="M14.208 16.75H9.29134C8.07467 16.75 7.08301 15.7583 7.08301 14.5417L7.08301 7.95833C7.08301 6.74167 8.07467 5.75 9.29134 5.75H14.208C15.4247 5.75 16.4163 6.74167 16.4163 7.95833V14.5417C16.4163 15.7583 15.4247 16.75 14.208 16.75ZM9.29134 7.16667C8.85384 7.16667 8.49967 7.52083 8.49967 7.95833V14.5417C8.49967 14.9792 8.85384 15.3333 9.29134 15.3333H14.208C14.6455 15.3333 14.9997 14.9792 14.9997 14.5417V7.95833C14.9997 7.52083 14.6455 7.16667 14.208 7.16667H9.29134Z" fill="#A8ACB4"/>
<path d="M5.99967 13.5417H4.58301L4.58301 5.45833C4.58301 4.24167 5.57467 3.25 6.79134 3.25L13.208 3.25V4.66667H6.79134C6.35384 4.66667 5.99967 5.02083 5.99967 5.45833L5.99967 13.5417Z" fill="#A8ACB4"/>
</svg>
