<svg width="48" height="48" viewBox="0 0 48 48" fill="none" xmlns="http://www.w3.org/2000/svg">
<path d="M32.25 24H38.25C38.25 16.1306 31.8694 9.75 24 9.75V15.75C28.5562 15.75 32.25 19.4438 32.25 24Z" fill="#FFC82A"/>
<path d="M24 32.25C19.4438 32.25 15.75 28.5562 15.75 24C15.75 19.4438 19.4438 15.75 24 15.75V9.75C16.1306 9.75 9.75 16.1306 9.75 24C9.75 31.8694 16.1306 38.25 24 38.25C27.9356 38.25 31.4981 36.6544 34.0763 34.0763L29.8331 29.8331C28.3406 31.3256 26.2781 32.25 24 32.25Z" fill="#3987F8"/>
<path d="M32.2499 24C32.2499 26.2781 31.3274 28.3406 29.833 29.8331L34.0761 34.0763C36.6543 31.4981 38.2499 27.9356 38.2499 24H32.2499Z" fill="#15C480"/>
<path d="M24.0029 23.4375C25.4527 23.4375 26.6279 22.2622 26.6279 20.8125C26.6279 19.3628 25.4527 18.1875 24.0029 18.1875C22.5532 18.1875 21.3779 19.3628 21.3779 20.8125C21.3779 22.2622 22.5532 23.4375 24.0029 23.4375Z" fill="#3987F8"/>
<path d="M27.2375 29.0632C25.4037 29.0632 22.5969 29.0632 20.7631 29.0632C19.67 29.0632 18.9369 27.9288 19.3981 26.937C20.1987 25.2195 21.9575 24.1113 23.9994 24.1113C26.0412 24.1113 27.8019 25.2213 28.6006 26.937C29.0619 27.927 28.3287 29.0632 27.2356 29.0632H27.2375Z" fill="#3987F8"/>
</svg>
