<svg width="21" height="20" viewBox="0 0 21 20" fill="none" xmlns="http://www.w3.org/2000/svg">
<path d="M15.2088 10.4166V13.9166C15.2088 14.3541 14.8547 14.7083 14.4172 14.7083H6.58382C6.14632 14.7083 5.79215 14.3541 5.79215 13.9166V10.4166H4.37549V13.9166C4.37549 15.1333 5.36716 16.1249 6.58382 16.1249H14.4172C15.6338 16.1249 16.6255 15.1333 16.6255 13.9166V10.4166H15.2088Z" fill="#A8ACB4"/>
<path d="M10.5005 11.9916C10.8297 11.9916 11.1463 11.8541 11.3755 11.6166L13.8963 8.97077L12.8713 7.9916L11.2088 9.73743V3.8916H9.79215V9.73743L8.12965 7.9916L7.10466 8.97077L9.62549 11.6166C9.85049 11.8541 10.1713 11.9916 10.5005 11.9916Z" fill="#A8ACB4"/>
</svg>
