<svg width="32" height="32" viewBox="0 0 32 32" fill="none" xmlns="http://www.w3.org/2000/svg">
<path d="M18 12.5H6.5V8.5C6.5 7.9475 6.9475 7.5 7.5 7.5H13.055C13.3388 7.5 13.6087 7.62 13.7987 7.83125L18.0013 12.5H18Z" fill="#2C6CCC"/>
<path d="M24.5 11H7.5C6.94772 11 6.5 11.4477 6.5 12V23.5C6.5 24.0523 6.94772 24.5 7.5 24.5H24.5C25.0523 24.5 25.5 24.0523 25.5 23.5V12C25.5 11.4477 25.0523 11 24.5 11Z" fill="#3987F8"/>
<path d="M16.8125 15.5625C16.8125 15.1138 16.4487 14.75 16 14.75C15.5513 14.75 15.1875 15.1138 15.1875 15.5625V19.9375C15.1875 20.3862 15.5513 20.75 16 20.75C16.4487 20.75 16.8125 20.3862 16.8125 19.9375V15.5625Z" fill="white"/>
<path d="M18.1875 18.5625C18.6362 18.5625 19 18.1987 19 17.75C19 17.3013 18.6362 16.9375 18.1875 16.9375H13.8125C13.3638 16.9375 13 17.3013 13 17.75C13 18.1987 13.3638 18.5625 13.8125 18.5625H18.1875Z" fill="white"/>
</svg>
