<svg width="20" height="20" viewBox="0 0 20 20" fill="none" xmlns="http://www.w3.org/2000/svg">
<path d="M7.25024 3.87524H6.08358C4.86395 3.87524 3.87524 4.86394 3.87524 6.08357V7.25024C3.87524 8.46984 4.86395 9.45859 6.08358 9.45859H7.25024C8.46984 9.45859 9.45859 8.46984 9.45859 7.25024V6.08357C9.45859 4.86394 8.46984 3.87524 7.25024 3.87524Z" fill="#6A7081"/>
<path d="M13.9169 3.87524H12.7503C11.5306 3.87524 10.5419 4.86394 10.5419 6.08357V7.25024C10.5419 8.46984 11.5306 9.45859 12.7503 9.45859H13.9169C15.1365 9.45859 16.1253 8.46984 16.1253 7.25024V6.08357C16.1253 4.86394 15.1365 3.87524 13.9169 3.87524Z" fill="#6A7081"/>
<path d="M7.25024 10.5419H6.08358C4.86395 10.5419 3.87524 11.5306 3.87524 12.7503V13.9169C3.87524 15.1365 4.86395 16.1253 6.08358 16.1253H7.25024C8.46984 16.1253 9.45859 15.1365 9.45859 13.9169V12.7503C9.45859 11.5306 8.46984 10.5419 7.25024 10.5419Z" fill="#6A7081"/>
<path d="M13.9169 10.5419H12.7503C11.5306 10.5419 10.5419 11.5306 10.5419 12.7503V13.9169C10.5419 15.1365 11.5306 16.1253 12.7503 16.1253H13.9169C15.1365 16.1253 16.1253 15.1365 16.1253 13.9169V12.7503C16.1253 11.5306 15.1365 10.5419 13.9169 10.5419Z" fill="#6A7081"/>
</svg>
