<svg width="24" height="24" viewBox="0 0 24 24" fill="none" xmlns="http://www.w3.org/2000/svg">
<path d="M6 3H19C19.5525 3 20 3.4475 20 4V20C20 20.5525 19.5525 21 19 21H6C4.89625 21 4 20.1038 4 19V5C4 3.89625 4.89625 3 6 3Z" fill="#15C480"/>
<path d="M6 3H7V21H6C4.89625 21 4 20.1038 4 19V5C4 3.89625 4.89625 3 6 3Z" fill="#239A6D"/>
<path d="M15.0625 7.75H11.9375C11.4888 7.75 11.125 8.11377 11.125 8.5625C11.125 9.01123 11.4888 9.375 11.9375 9.375H15.0625C15.5112 9.375 15.875 9.01123 15.875 8.5625C15.875 8.11377 15.5112 7.75 15.0625 7.75Z" fill="#9EEED3"/>
</svg>
