<svg width="192" height="192" viewBox="0 0 192 192" fill="none" xmlns="http://www.w3.org/2000/svg">
<path d="M87.931 69.1599C87.371 69.1599 86.801 69.0699 86.241 68.8899C83.351 67.9599 81.761 64.8599 82.701 61.9699C84.911 55.1299 84.811 48.0199 82.431 41.9399C81.321 39.1099 82.711 35.9199 85.541 34.8099C88.361 33.6999 91.561 35.0899 92.671 37.9199C95.981 46.3599 96.161 56.0999 93.171 65.3499C92.421 67.6799 90.261 69.1599 87.941 69.1599H87.931Z" fill="#3987F8"/>
<path d="M121.301 85.9103C119.871 85.9103 118.441 85.3603 117.361 84.2503C115.241 82.0803 115.281 78.5903 117.451 76.4703C125.761 68.3503 135.541 64.9103 147.341 65.9503C150.371 66.2203 152.601 68.8903 152.331 71.9103C152.061 74.9403 149.401 77.1803 146.371 76.9003C137.841 76.1503 131.101 78.5103 125.131 84.3303C124.061 85.3703 122.671 85.8903 121.291 85.8903L121.301 85.9103Z" fill="#43DAA0"/>
<path d="M158.39 116.49C157 116.49 155.6 115.96 154.53 114.91C147.71 108.19 137.74 105.64 127.16 107.91C124.2 108.55 121.27 106.66 120.63 103.69C119.99 100.72 121.88 97.8 124.85 97.16C139.12 94.09 152.75 97.71 162.26 107.08C164.42 109.21 164.45 112.7 162.32 114.86C161.24 115.95 159.82 116.5 158.4 116.5L158.39 116.49Z" fill="#7666EF"/>
<path d="M67.7508 56.5002C65.6708 54.4202 62.1208 55.2202 61.1508 58.0002L28.5808 150.67C25.8008 158.59 33.4108 166.2 41.3308 163.42L134.001 130.86C136.781 129.88 137.591 126.34 135.501 124.26L67.7508 56.5002Z" fill="#15C480"/>
<path d="M134.17 45.5603C136.52 44.5003 136.64 41.2003 134.36 39.9803L130.28 37.7903C129.38 37.3003 128.77 36.4103 128.66 35.3903L128.15 30.7903C127.87 28.2203 124.77 27.0903 122.9 28.8803L119.56 32.0803C118.82 32.7903 117.78 33.0903 116.77 32.8803L112.24 31.9403C109.71 31.4203 107.68 34.0203 108.8 36.3403L110.81 40.5103C111.26 41.4303 111.22 42.5203 110.71 43.4103L108.41 47.4303C107.13 49.6703 108.98 52.4103 111.53 52.0603L116.12 51.4403C117.14 51.3003 118.15 51.6703 118.84 52.4303L121.95 55.8603C123.69 57.7703 126.86 56.8603 127.32 54.3203L128.15 49.7703C128.33 48.7603 129 47.9103 129.93 47.4903L134.15 45.5903L134.17 45.5603Z" fill="#FFC82A"/>
<path d="M34 84C37.3137 84 40 81.3137 40 78C40 74.6863 37.3137 72 34 72C30.6863 72 28 74.6863 28 78C28 81.3137 30.6863 84 34 84Z" fill="#FFC82A"/>
<path d="M158 56C161.314 56 164 53.3137 164 50C164 46.6863 161.314 44 158 44C154.686 44 152 46.6863 152 50C152 53.3137 154.686 56 158 56Z" fill="#3987F8"/>
<path d="M156 148C160.418 148 164 144.418 164 140C164 135.582 160.418 132 156 132C151.582 132 148 135.582 148 140C148 144.418 151.582 148 156 148Z" fill="#FFC82A"/>
<path d="M52.2577 28.358L45.9661 31.4266C44.2287 32.274 43.5072 34.3694 44.3546 36.1067L47.4232 42.3983C48.2706 44.1356 50.3659 44.8571 52.1033 44.0098L58.3948 40.9412C60.1322 40.0938 60.8537 37.9984 60.0063 36.2611L56.9377 29.9695C56.0904 28.2322 53.995 27.5107 52.2577 28.358Z" fill="#7666EF"/>
<path d="M123.599 153.203L118.403 150.203C116.968 149.375 115.133 149.866 114.305 151.301L111.305 156.497C110.476 157.932 110.968 159.767 112.403 160.595L117.599 163.595C119.034 164.424 120.869 163.932 121.697 162.497L124.697 157.301C125.525 155.866 125.034 154.032 123.599 153.203Z" fill="#43DAA0"/>
</svg>
