<svg width="16" height="16" viewBox="0 0 16 16" fill="none" xmlns="http://www.w3.org/2000/svg">
<path d="M10.6691 9.49082C10.3437 9.16539 9.81606 9.16539 9.49062 9.49082C9.16519 9.81626 9.16519 10.3439 9.49062 10.6693L12.2436 13.4223C12.5691 13.7478 13.0967 13.7478 13.4221 13.4223C13.7476 13.0969 13.7476 12.5693 13.4221 12.2438L10.6691 9.49082Z" fill="#9FA4AB"/>
<path d="M7.08337 11.8333C4.46421 11.8333 2.33337 9.70242 2.33337 7.08325C2.33337 4.46409 4.46421 2.33325 7.08337 2.33325C9.70254 2.33325 11.8334 4.46409 11.8334 7.08325C11.8334 9.70242 9.70254 11.8333 7.08337 11.8333ZM7.08337 3.99992C5.38337 3.99992 4.00004 5.38325 4.00004 7.08325C4.00004 8.78325 5.38337 10.1666 7.08337 10.1666C8.78337 10.1666 10.1667 8.78325 10.1667 7.08325C10.1667 5.38325 8.78337 3.99992 7.08337 3.99992Z" fill="#CFD1D5"/>
</svg>
