<svg width="120" height="120" viewBox="0 0 120 120" fill="none" xmlns="http://www.w3.org/2000/svg">
<path d="M102.5 12.5H40C37.2386 12.5 35 14.7386 35 17.5V80C35 82.7614 37.2386 85 40 85H102.5C105.261 85 107.5 82.7614 107.5 80V17.5C107.5 14.7386 105.261 12.5 102.5 12.5Z" fill="#D1E6FF"/>
<path d="M81.875 15H78.125C77.462 15 76.8261 15.2634 76.3572 15.7322C75.8884 16.2011 75.625 16.837 75.625 17.5C75.625 18.163 75.8884 18.7989 76.3572 19.2678C76.8261 19.7366 77.462 20 78.125 20H81.875C82.538 20 83.1739 19.7366 83.6428 19.2678C84.1116 18.7989 84.375 18.163 84.375 17.5C84.375 16.837 84.1116 16.2011 83.6428 15.7322C83.1739 15.2634 82.538 15 81.875 15Z" fill="#94C6F7"/>
<path d="M64.375 15H60.625C59.962 15 59.3261 15.2634 58.8572 15.7322C58.3884 16.2011 58.125 16.837 58.125 17.5C58.125 18.163 58.3884 18.7989 58.8572 19.2678C59.3261 19.7366 59.962 20 60.625 20H64.375C65.038 20 65.6739 19.7366 66.1428 19.2678C66.6116 18.7989 66.875 18.163 66.875 17.5C66.875 16.837 66.6116 16.2011 66.1428 15.7322C65.6739 15.2634 65.038 15 64.375 15Z" fill="#94C6F7"/>
<path d="M102.5 35.625C101.837 35.625 101.201 35.8884 100.732 36.3572C100.263 36.8261 100 37.462 100 38.125V41.875C100 42.538 100.263 43.1739 100.732 43.6428C101.201 44.1116 101.837 44.375 102.5 44.375C103.163 44.375 103.799 44.1116 104.268 43.6428C104.737 43.1739 105 42.538 105 41.875V38.125C105 37.462 104.737 36.8261 104.268 36.3572C103.799 35.8884 103.163 35.625 102.5 35.625Z" fill="#94C6F7"/>
<path d="M102.5 53.125C101.837 53.125 101.201 53.3884 100.732 53.8572C100.263 54.3261 100 54.962 100 55.625V59.375C100 60.038 100.263 60.6739 100.732 61.1428C101.201 61.6116 101.837 61.875 102.5 61.875C103.163 61.875 103.799 61.6116 104.268 61.1428C104.737 60.6739 105 60.038 105 59.375V55.625C105 54.962 104.737 54.3261 104.268 53.8572C103.799 53.3884 103.163 53.125 102.5 53.125Z" fill="#94C6F7"/>
<path d="M100 15H95.625C94.962 15 94.3261 15.2634 93.8572 15.7322C93.3884 16.2011 93.125 16.837 93.125 17.5C93.125 18.163 93.3884 18.7989 93.8572 19.2678C94.3261 19.7366 94.962 20 95.625 20H100V24.375C100 25.038 100.263 25.6739 100.732 26.1428C101.201 26.6116 101.837 26.875 102.5 26.875C103.163 26.875 103.799 26.6116 104.268 26.1428C104.737 25.6739 105 25.038 105 24.375V20C105 18.6739 104.473 17.4021 103.536 16.4645C102.598 15.5268 101.326 15 100 15Z" fill="#94C6F7"/>
<path d="M42.5 15H46.875C47.538 15 48.1739 15.2634 48.6428 15.7322C49.1116 16.2011 49.375 16.837 49.375 17.5C49.375 18.163 49.1116 18.7989 48.6428 19.2678C48.1739 19.7366 47.538 20 46.875 20H42.5V24.375C42.5 25.038 42.2366 25.6739 41.7678 26.1428C41.2989 26.6116 40.663 26.875 40 26.875C39.337 26.875 38.7011 26.6116 38.2322 26.1428C37.7634 25.6739 37.5 25.038 37.5 24.375V20C37.5 18.6739 38.0268 17.4021 38.9645 16.4645C39.9021 15.5268 41.1739 15 42.5 15Z" fill="#94C6F7"/>
<path d="M37.5 59.375V55.625C37.5 54.962 37.7634 54.3261 38.2322 53.8572C38.7011 53.3884 39.337 53.125 40 53.125C40.663 53.125 41.2989 53.3884 41.7678 53.8572C42.2366 54.3261 42.5 54.962 42.5 55.625V59.375C42.5 60.038 42.2366 60.6739 41.7678 61.1428C41.2989 61.6116 40.663 61.875 40 61.875C39.337 61.875 38.7011 61.6116 38.2322 61.1428C37.7634 60.6739 37.5 60.038 37.5 59.375Z" fill="#94C6F7"/>
<path d="M37.5 41.875V38.125C37.5 37.462 37.7634 36.8261 38.2322 36.3572C38.7011 35.8884 39.337 35.625 40 35.625C40.663 35.625 41.2989 35.8884 41.7678 36.3572C42.2366 36.8261 42.5 37.462 42.5 38.125V41.875C42.5 42.538 42.2366 43.1739 41.7678 43.6428C41.2989 44.1116 40.663 44.375 40 44.375C39.337 44.375 38.7011 44.1116 38.2322 43.6428C37.7634 43.1739 37.5 42.538 37.5 41.875Z" fill="#94C6F7"/>
<path d="M58.125 80C58.125 79.337 58.3884 78.7011 58.8572 78.2322C59.3261 77.7634 59.962 77.5 60.625 77.5H64.375C65.038 77.5 65.6739 77.7634 66.1428 78.2322C66.6116 78.7011 66.875 79.337 66.875 80C66.875 80.663 66.6116 81.2989 66.1428 81.7678C65.6739 82.2366 65.038 82.5 64.375 82.5H60.625C59.962 82.5 59.3261 82.2366 58.8572 81.7678C58.3884 81.2989 58.125 80.663 58.125 80Z" fill="#94C6F7"/>
<path d="M75.625 80C75.625 79.337 75.8884 78.7011 76.3572 78.2322C76.8261 77.7634 77.462 77.5 78.125 77.5H81.875C82.538 77.5 83.1739 77.7634 83.6428 78.2322C84.1116 78.7011 84.375 79.337 84.375 80C84.375 80.663 84.1116 81.2989 83.6428 81.7678C83.1739 82.2366 82.538 82.5 81.875 82.5H78.125C77.462 82.5 76.8261 82.2366 76.3572 81.7678C75.8884 81.2989 75.625 80.663 75.625 80Z" fill="#94C6F7"/>
<path d="M37.5 77.5V73.125C37.5 72.462 37.7634 71.8261 38.2322 71.3572C38.7011 70.8884 39.337 70.625 40 70.625C40.663 70.625 41.2989 70.8884 41.7678 71.3572C42.2366 71.8261 42.5 72.462 42.5 73.125V77.5H46.875C47.538 77.5 48.1739 77.7634 48.6428 78.2322C49.1116 78.7011 49.375 79.337 49.375 80C49.375 80.663 49.1116 81.2989 48.6428 81.7678C48.1739 82.2366 47.538 82.5 46.875 82.5H42.5C41.1739 82.5 39.9021 81.9732 38.9645 81.0355C38.0268 80.0978 37.5 78.8261 37.5 77.5Z" fill="#94C6F7"/>
<path d="M105 77.5V73.125C105 72.462 104.737 71.8261 104.268 71.3572C103.799 70.8884 103.163 70.625 102.5 70.625C101.837 70.625 101.201 70.8884 100.732 71.3572C100.263 71.8261 100 72.462 100 73.125V77.5H95.625C94.962 77.5 94.3261 77.7634 93.8572 78.2322C93.3884 78.7011 93.125 79.337 93.125 80C93.125 80.663 93.3884 81.2989 93.8572 81.7678C94.3261 82.2366 94.962 82.5 95.625 82.5H100C101.326 82.5 102.598 81.9732 103.536 81.0355C104.473 80.0978 105 78.8261 105 77.5Z" fill="#94C6F7"/>
<path d="M80.751 35.8105H67.626C65.7275 35.8105 64.1885 37.3496 64.1885 39.248C64.1885 41.1465 65.7275 42.6856 67.626 42.6856H80.751C82.6495 42.6856 84.1885 41.1465 84.1885 39.248C84.1885 37.3496 82.6495 35.8105 80.751 35.8105Z" fill="#94C6F7"/>
<path d="M77.3184 39.248V52.373C77.3184 54.2715 78.8574 55.8105 80.7559 55.8105C82.6543 55.8105 84.1934 54.2715 84.1934 52.373V39.248C84.1934 37.3496 82.6543 35.8105 80.7559 35.8105C78.8574 35.8105 77.3184 37.3496 77.3184 39.248Z" fill="#94C6F7"/>
<path d="M78.3248 36.8207L59.3213 55.8242C57.9789 57.1666 57.9789 59.3431 59.3213 60.6856C60.6637 62.028 62.8402 62.028 64.1827 60.6856L83.1862 41.6821C84.5286 40.3396 84.5286 38.1631 83.1862 36.8207C81.8437 35.4783 79.6672 35.4783 78.3248 36.8207Z" fill="#94C6F7"/>
<path d="M57.5 57.5H17.5C14.7386 57.5 12.5 59.7386 12.5 62.5V102.5C12.5 105.261 14.7386 107.5 17.5 107.5H57.5C60.2614 107.5 62.5 105.261 62.5 102.5V62.5C62.5 59.7386 60.2614 57.5 57.5 57.5Z" fill="#3987F8"/>
<path d="M52.5 84.5489H22.5V71.5802C22.5 70.9171 22.7634 70.2812 23.2322 69.8124C23.7011 69.3435 24.337 69.0802 25 69.0802H32.4375C32.7906 69.0775 33.1402 69.1496 33.4634 69.2918C33.7866 69.434 34.0759 69.643 34.3125 69.9052L38.5375 74.6052H50C50.663 74.6052 51.2989 74.8685 51.7678 75.3374C52.2366 75.8062 52.5 76.4421 52.5 77.1052V84.5489Z" fill="#94C6F7"/>
<path d="M47.2992 73.8203H27.6992C27.3677 73.8203 27.0498 73.952 26.8153 74.1864C26.5809 74.4208 26.4492 74.7388 26.4492 75.0703V87.1078C26.4492 87.7709 26.7126 88.4067 27.1815 88.8756C27.6503 89.3444 28.2862 89.6078 28.9492 89.6078H46.0492C46.7123 89.6078 47.3481 89.3444 47.817 88.8756C48.2858 88.4067 48.5492 87.7709 48.5492 87.1078V75.0703C48.5492 74.7388 48.4175 74.4208 48.1831 74.1864C47.9487 73.952 47.6307 73.8203 47.2992 73.8203Z" fill="white"/>
<path d="M50 76.9756H25C23.6193 76.9756 22.5 78.0949 22.5 79.4756V93.4256C22.5 94.8063 23.6193 95.9256 25 95.9256H50C51.3807 95.9256 52.5 94.8063 52.5 93.4256V79.4756C52.5 78.0949 51.3807 76.9756 50 76.9756Z" fill="#94C6F7"/>
</svg>
