<svg width="20" height="20" viewBox="0 0 20 20" fill="none" xmlns="http://www.w3.org/2000/svg">
<g id="icon_sort_24_filled">
<g id="Vector">
<path d="M12.0002 11.1834H8.00022C7.51689 11.1834 7.07939 11.4709 6.89189 11.9126C6.70022 12.3584 6.79189 12.8709 7.12522 13.2209L9.12522 15.3292C9.35022 15.5709 9.67105 15.7084 10.0002 15.7084C10.3294 15.7084 10.6502 15.5709 10.8752 15.3334L12.8752 13.2251C13.2086 12.8751 13.3002 12.3626 13.1086 11.9167C12.9169 11.4709 12.4836 11.1876 12.0002 11.1876V11.1834Z" fill="#CFD4DE"/>
<path d="M8.00022 8.81673H12.0002C12.4836 8.81673 12.9211 8.52923 13.1086 8.08756C13.2961 7.6459 13.2086 7.12923 12.8752 6.77923L10.8752 4.6709C10.6461 4.42923 10.3294 4.2959 10.0002 4.2959C9.67105 4.2959 9.35022 4.4334 9.12522 4.6709L7.12522 6.77923C6.79189 7.12923 6.70022 7.6459 6.89189 8.08756C7.08355 8.5334 7.51689 8.81673 8.00022 8.81673Z" fill="#CFD4DE"/>
</g>
</g>
</svg>
