<svg width="20" height="20" viewBox="0 0 20 20" fill="none" xmlns="http://www.w3.org/2000/svg">
<path d="M15.4167 5.63411H4.58333V8.58412H15.4167V5.63411Z" fill="#6A7081"/>
<path fill-rule="evenodd" clip-rule="evenodd" d="M3.875 5.63411C3.875 5.24291 4.19213 4.92578 4.58333 4.92578H15.4167C15.8079 4.92578 16.125 5.24291 16.125 5.63411V8.58412C16.125 8.97532 15.8079 9.29246 15.4167 9.29246H4.58333C4.19213 9.29246 3.875 8.97532 3.875 8.58412V5.63411ZM5.29167 6.34245V7.87579H14.7083V6.34245H5.29167Z" fill="#6A7081"/>
<path d="M15.4167 11.417H4.58333V14.367H15.4167V11.417Z" fill="#6A7081"/>
<path fill-rule="evenodd" clip-rule="evenodd" d="M3.875 11.417C3.875 11.0258 4.19213 10.7087 4.58333 10.7087H15.4167C15.8079 10.7087 16.125 11.0258 16.125 11.417V14.367C16.125 14.7582 15.8079 15.0753 15.4167 15.0753H4.58333C4.19213 15.0753 3.875 14.7582 3.875 14.367V11.417ZM5.29167 12.1253V13.6587H14.7083V12.1253H5.29167Z" fill="#6A7081"/>
</svg>
