<svg width="20" height="20" viewBox="0 0 20 20" fill="none" xmlns="http://www.w3.org/2000/svg">
<path d="M15.5628 5.17051L15.1128 7.03301C14.0753 5.24134 12.1503 4.08301 10.0003 4.08301C7.30443 4.08301 4.95026 5.90801 4.27526 8.52051L5.64609 8.87467C6.15859 6.88717 7.94609 5.49967 9.99609 5.49967C11.7086 5.49967 13.2378 6.47051 13.9919 7.94967L11.8419 7.31634L11.4419 8.67467L14.6378 9.61634C14.7503 9.64967 14.8628 9.66634 14.9753 9.66634C15.1878 9.66634 15.3961 9.61217 15.5794 9.50384C15.8628 9.34134 16.0711 9.06217 16.1503 8.74134L16.9336 5.50384L15.5586 5.17051H15.5628Z" fill="#767A83"/>
<path d="M10.0003 14.4997C8.28776 14.4997 6.75859 13.5288 6.00443 12.0497L8.15443 12.683L8.55443 11.3247L5.35859 10.383C5.04193 10.2913 4.70026 10.333 4.41276 10.4955C4.12943 10.658 3.92109 10.9372 3.84193 11.258L3.05859 14.4955L4.43359 14.8288L4.88359 12.9663C5.92109 14.758 7.84609 15.9163 9.99609 15.9163C12.6919 15.9163 15.0461 14.0913 15.7211 11.4788L14.3503 11.1247C13.8378 13.1122 12.0503 14.4997 10.0003 14.4997Z" fill="#767A83"/>
</svg>
