<svg width="160" height="20" viewBox="0 0 160 20" fill="none" xmlns="http://www.w3.org/2000/svg">
<g clip-path="url(#clip0_1119_1242)">
<rect x="64.198" y="19.0612" width="18.1226" height="18.1226" transform="rotate(180 64.198 19.0612)" fill="#FFA600"/>
<rect x="42.4501" y="20" width="20" height="20" rx="9.99998" transform="rotate(180 42.4501 20)" fill="#134CDE"/>
<path d="M10.262 18.887L9.38136e-05 1.11287L20.5239 1.11286L10.262 18.887Z" fill="#CFD4DE"/>
<path d="M81.7145 13.7382L86.4038 0.380208H90.1045L83.4382 18.3514H79.8389L73.1979 0.380208H77.0253L81.7145 13.7382Z" fill="black"/>
<path d="M95.9476 18.3514H92.399V0.380208H95.9476V18.3514Z" fill="black"/>
<path d="M112.138 4.66389L108.995 5.62708C108.877 4.98495 108.556 4.40197 108.032 3.87813C107.508 3.35428 106.739 3.09236 105.726 3.09236C104.897 3.09236 104.222 3.32049 103.698 3.77674C103.174 4.21609 102.912 4.74838 102.912 5.37361C102.912 6.47199 103.563 7.14792 104.864 7.40139L107.373 7.88299C108.961 8.18715 110.195 8.82084 111.074 9.78403C111.952 10.7472 112.392 11.8794 112.392 13.1806C112.392 14.6676 111.8 15.9688 110.618 17.084C109.452 18.1824 107.88 18.7316 105.903 18.7316C104.771 18.7316 103.748 18.5626 102.836 18.2247C101.923 17.8867 101.188 17.4389 100.631 16.8813C100.073 16.3067 99.6337 15.7068 99.3127 15.0816C99.0085 14.4395 98.8226 13.7804 98.755 13.1045L101.999 12.2427C102.084 13.2059 102.456 14.0086 103.115 14.6507C103.791 15.2928 104.729 15.6139 105.928 15.6139C106.841 15.6139 107.551 15.4111 108.057 15.0056C108.581 14.6 108.843 14.0677 108.843 13.4087C108.843 12.8848 108.649 12.437 108.26 12.0653C107.888 11.6766 107.356 11.4147 106.663 11.2795L104.154 10.7726C102.701 10.4684 101.552 9.86852 100.707 8.97292C99.8618 8.07732 99.4394 6.96204 99.4394 5.62708C99.4394 4.03866 100.048 2.7037 101.264 1.62222C102.498 0.540741 103.977 0 105.7 0C106.731 0 107.652 0.143635 108.463 0.430904C109.274 0.718172 109.925 1.10683 110.415 1.59688C110.905 2.07002 111.285 2.56007 111.555 3.06701C111.826 3.57396 112.02 4.10625 112.138 4.66389Z" fill="black"/>
<path d="M118.894 18.3514H115.345V0.380208H118.894V18.3514Z" fill="black"/>
<path d="M127.227 4.94271C126.112 5.9735 125.554 7.44363 125.554 9.35313C125.554 11.2626 126.112 12.7412 127.227 13.7889C128.342 14.8197 129.652 15.3351 131.156 15.3351C132.677 15.3351 133.995 14.8197 135.11 13.7889C136.225 12.7412 136.783 11.2626 136.783 9.35313C136.783 7.44363 136.225 5.9735 135.11 4.94271C133.995 3.89502 132.677 3.37118 131.156 3.37118C129.652 3.37118 128.342 3.89502 127.227 4.94271ZM121.929 9.37847C121.929 6.57338 122.833 4.30903 124.641 2.58542C126.45 0.861806 128.621 0 131.156 0C133.707 0 135.887 0.861806 137.695 2.58542C139.503 4.30903 140.407 6.57338 140.407 9.37847C140.407 12.1667 139.503 14.4226 137.695 16.1462C135.887 17.8698 133.707 18.7316 131.156 18.7316C128.621 18.7316 126.45 17.8698 124.641 16.1462C122.833 14.4226 121.929 12.1667 121.929 9.37847Z" fill="black"/>
<path d="M158.775 18.3514H155.1L146.938 5.60174V18.3514H143.44V0.380208H147.8L155.277 12.2681V0.380208H158.775V18.3514Z" fill="black"/>
</g>
<defs>
<clipPath id="clip0_1119_1242">
<rect width="158.775" height="20" fill="white"/>
</clipPath>
</defs>
</svg>
