<svg width="25" height="25" viewBox="0 0 25 25" fill="none" xmlns="http://www.w3.org/2000/svg">
<g clip-path="url(#clip0_263_4491)">
<rect x="0.904297" y="0.200195" width="23.9037" height="23.9037" rx="3.82459" fill="#ECECEC"/>
<g clip-path="url(#clip1_263_4491)">
<rect width="42.453" height="23.8798" transform="translate(-9.29688 0.224121)" fill="white"/>
<rect width="42.453" height="23.8798" transform="translate(-9.29688 0.224121)" fill="url(#paint0_linear_263_4491)"/>
<circle opacity="0.64" cx="19.2242" cy="6.41534" r="12.7359" fill="url(#paint1_radial_263_4491)"/>
<circle opacity="0.64" cx="5.206" cy="20.8979" r="15.9199" fill="url(#paint2_radial_263_4491)"/>
</g>
<path d="M13.3473 13.8733C16.3506 13.8733 18.7854 11.4439 18.7854 8.44714C18.7854 5.45036 16.3506 3.021 13.3473 3.021C10.3439 3.021 7.90918 5.45036 7.90918 8.44714C7.90918 11.4439 10.3439 13.8733 13.3473 13.8733Z" fill="#3389F8"/>
<path d="M24.7477 20.6379C27.751 20.6379 30.1858 18.2086 30.1858 15.2118C30.1858 12.215 27.751 9.78564 24.7477 9.78564C21.7443 9.78564 19.3096 12.215 19.3096 15.2118C19.3096 18.2086 21.7443 20.6379 24.7477 20.6379Z" fill="#41F06B"/>
<path d="M4.35509 16.7811C6.29745 14.2819 6.56208 11.2402 4.94615 9.98734C3.33022 8.7345 0.445652 9.74493 -1.49671 12.2442C-3.43908 14.7435 -3.7037 17.7852 -2.08777 19.038C-0.471842 20.2908 2.41273 19.2804 4.35509 16.7811Z" fill="#59D9D0"/>
<mask id="mask0_263_4491" style="mask-type:alpha" maskUnits="userSpaceOnUse" x="10" y="6" width="14" height="13">
<path d="M21.5159 16.6217C23.8246 14.238 23.6554 10.3337 21.1379 7.9012C18.6204 5.46874 14.7079 5.42924 12.3991 7.81299C10.0904 10.1967 10.2596 14.1011 12.7771 16.5335C15.2947 18.966 19.2071 19.0055 21.5159 16.6217Z" fill="white"/>
</mask>
<g mask="url(#mask0_263_4491)">
<path d="M21.4134 16.7349C23.7472 14.4011 23.6313 10.5063 21.1545 8.03547C18.6778 5.56468 14.7781 5.45358 12.4444 7.78732C10.1106 10.1211 10.2265 14.0159 12.7033 16.4867C15.18 18.9575 19.0797 19.0686 21.4134 16.7349Z" fill="#E0FEDF"/>
<g filter="url(#filter0_f_263_4491)">
<path d="M13.3445 14.2087C16.5303 14.2087 19.1129 11.6292 19.1129 8.44723C19.1129 5.26528 16.5303 2.68579 13.3445 2.68579C10.1588 2.68579 7.57617 5.26528 7.57617 8.44723C7.57617 11.6292 10.1588 14.2087 13.3445 14.2087Z" fill="#3389F8"/>
</g>
<g filter="url(#filter1_f_263_4491)">
<path d="M24.7423 20.5138C27.6693 20.5138 30.0422 18.1438 30.0422 15.2203C30.0422 12.2968 27.6693 9.92676 24.7423 9.92676C21.8152 9.92676 19.4424 12.2968 19.4424 15.2203C19.4424 18.1438 21.8152 20.5138 24.7423 20.5138Z" fill="#41F06B"/>
</g>
<g filter="url(#filter2_b_263_4491)">
<ellipse cx="16.8991" cy="12.1779" rx="6.04632" ry="6.4091" transform="rotate(-45 16.8991 12.1779)" fill="white" fill-opacity="0.1"/>
</g>
</g>
<path d="M21.1149 7.92696C23.6195 10.3469 23.7858 14.2286 21.4921 16.5968C19.1983 18.9651 15.3086 18.9277 12.804 16.5078C10.2994 14.0878 10.1331 10.2062 12.4269 7.8379C14.7206 5.46966 18.6103 5.50698 21.1149 7.92696Z" stroke="url(#paint3_radial_263_4491)" stroke-opacity="0.7" stroke-width="0.0717111"/>
</g>
<defs>
<filter id="filter0_f_263_4491" x="7.43275" y="2.54237" width="11.824" height="11.8098" filterUnits="userSpaceOnUse" color-interpolation-filters="sRGB">
<feFlood flood-opacity="0" result="BackgroundImageFix"/>
<feBlend mode="normal" in="SourceGraphic" in2="BackgroundImageFix" result="shape"/>
<feGaussianBlur stdDeviation="0.0717111" result="effect1_foregroundBlur_263_4491"/>
</filter>
<filter id="filter1_f_263_4491" x="19.299" y="9.78334" width="10.8865" height="10.874" filterUnits="userSpaceOnUse" color-interpolation-filters="sRGB">
<feFlood flood-opacity="0" result="BackgroundImageFix"/>
<feBlend mode="normal" in="SourceGraphic" in2="BackgroundImageFix" result="shape"/>
<feGaussianBlur stdDeviation="0.0717111" result="effect1_foregroundBlur_263_4491"/>
</filter>
<filter id="filter2_b_263_4491" x="10.1909" y="5.46944" width="13.4171" height="13.4168" filterUnits="userSpaceOnUse" color-interpolation-filters="sRGB">
<feFlood flood-opacity="0" result="BackgroundImageFix"/>
<feGaussianBlur in="BackgroundImageFix" stdDeviation="0.239037"/>
<feComposite in2="SourceAlpha" operator="in" result="effect1_backgroundBlur_263_4491"/>
<feBlend mode="normal" in="SourceGraphic" in2="effect1_backgroundBlur_263_4491" result="shape"/>
</filter>
<linearGradient id="paint0_linear_263_4491" x1="0" y1="0" x2="35.5979" y2="31.6018" gradientUnits="userSpaceOnUse">
<stop stop-color="#8CE99A"/>
<stop offset="1" stop-color="#51CF66"/>
</linearGradient>
<radialGradient id="paint1_radial_263_4491" cx="0" cy="0" r="1" gradientUnits="userSpaceOnUse" gradientTransform="translate(19.2242 6.41534) rotate(90) scale(12.7359)">
<stop stop-color="#7ADEDA"/>
<stop offset="1" stop-color="#7ADEDA" stop-opacity="0"/>
</radialGradient>
<radialGradient id="paint2_radial_263_4491" cx="0" cy="0" r="1" gradientUnits="userSpaceOnUse" gradientTransform="translate(5.206 20.8979) rotate(90) scale(15.9199)">
<stop stop-color="#FCF16C"/>
<stop offset="1" stop-color="#FCF16C" stop-opacity="0"/>
</radialGradient>
<radialGradient id="paint3_radial_263_4491" cx="0" cy="0" r="1" gradientUnits="userSpaceOnUse" gradientTransform="translate(13.6283 16.3876) rotate(-51.509) scale(10.3034 8.40353)">
<stop stop-color="white"/>
<stop offset="1" stop-color="white" stop-opacity="0"/>
</radialGradient>
<clipPath id="clip0_263_4491">
<rect x="0.904297" y="0.200195" width="23.9037" height="23.9037" rx="3.82459" fill="white"/>
</clipPath>
<clipPath id="clip1_263_4491">
<rect width="42.453" height="23.8798" fill="white" transform="translate(-9.29688 0.224121)"/>
</clipPath>
</defs>
</svg>
