<svg width="32" height="32" viewBox="0 0 32 32" fill="none" xmlns="http://www.w3.org/2000/svg">
<path d="M11.25 20.001C13.8734 20.001 16 17.8743 16 15.251C16 12.6276 13.8734 10.501 11.25 10.501C8.62665 10.501 6.5 12.6276 6.5 15.251C6.5 17.8743 8.62665 20.001 11.25 20.001Z" fill="#15C480"/>
<path d="M20.5 16.001H13C12.4477 16.001 12 16.4487 12 17.001V24.501C12 25.0533 12.4477 25.501 13 25.501H20.5C21.0523 25.501 21.5 25.0533 21.5 24.501V17.001C21.5 16.4487 21.0523 16.001 20.5 16.001Z" fill="#3987F8"/>
<path d="M25.2775 11.5841L17.7775 6.58408C17.7022 6.53382 17.6146 6.50497 17.5242 6.50059C17.4338 6.4962 17.3438 6.51646 17.264 6.5592C17.1842 6.60193 17.1175 6.66554 17.071 6.74323C17.0245 6.82092 16.9999 6.90978 17 7.00033V17.0003C16.9999 17.0909 17.0245 17.1797 17.071 17.2574C17.1175 17.3351 17.1842 17.3987 17.264 17.4415C17.3438 17.4842 17.4338 17.5044 17.5242 17.5001C17.6146 17.4957 17.7022 17.4668 17.7775 17.4166L25.2775 12.4166C25.3461 12.3709 25.4023 12.3091 25.4412 12.2364C25.4801 12.1638 25.5005 12.0827 25.5005 12.0003C25.5005 11.9179 25.4801 11.8368 25.4412 11.7642C25.4023 11.6916 25.3461 11.6297 25.2775 11.5841Z" fill="#FFC82A"/>
</svg>
