<svg width="32" height="32" viewBox="0 0 32 32" fill="none" xmlns="http://www.w3.org/2000/svg">
<path d="M18 12.5H6.5V8.5C6.5 8.23478 6.60536 7.98043 6.79289 7.79289C6.98043 7.60536 7.23478 7.5 7.5 7.5H13.055C13.1951 7.50014 13.3335 7.5297 13.4614 7.58676C13.5893 7.64382 13.7038 7.72712 13.7975 7.83125L18 12.5Z" fill="#CB242F"/>
<path d="M24.5 11H7.5C6.94772 11 6.5 11.4477 6.5 12V23.5C6.5 24.0523 6.94772 24.5 7.5 24.5H24.5C25.0523 24.5 25.5 24.0523 25.5 23.5V12C25.5 11.4477 25.0523 11 24.5 11Z" fill="#F0464F"/>
</svg>
