<svg width="32" height="32" viewBox="0 0 32 32" fill="none" xmlns="http://www.w3.org/2000/svg">
<path d="M20.138 7.79644L7.79634 20.1381C7.40582 20.5286 7.40582 21.1618 7.79634 21.5523L10.448 24.204C10.8385 24.5945 11.4717 24.5945 11.8622 24.204L24.2039 11.8623C24.5944 11.4718 24.5944 10.8386 24.2039 10.4481L21.5522 7.79644C21.1617 7.40592 20.5285 7.40592 20.138 7.79644Z" fill="#3987F8"/>
<path d="M21.6405 11.5971L21.9057 11.332C22.101 11.1366 22.4175 11.1366 22.6128 11.332L23.6735 12.3926L22.7012 13.3649L21.6405 12.3042C21.4452 12.1089 21.4452 11.7925 21.6405 11.5971Z" fill="#2C6CCC"/>
<path d="M19.7843 13.4536L20.0495 13.1884C20.2448 12.9931 20.5613 12.9931 20.7566 13.1884L21.8173 14.2491L20.845 15.2213L19.7843 14.1607C19.589 13.9653 19.589 13.6489 19.7843 13.4536Z" fill="#2C6CCC"/>
<path d="M13.188 20.0493L13.4532 19.7841C13.6485 19.5888 13.965 19.5888 14.1603 19.7841L15.221 20.8448L14.2487 21.817L13.188 20.7564C12.9927 20.561 12.9927 20.2446 13.188 20.0493Z" fill="#2C6CCC"/>
<path d="M11.3318 21.9057L11.597 21.6406C11.7923 21.4452 12.1088 21.4452 12.3041 21.6406L13.3648 22.7012L12.3925 23.6735L11.3318 22.6128C11.1365 22.4175 11.1365 22.1011 11.3318 21.9057Z" fill="#2C6CCC"/>
<path d="M24.1955 21.545L21.5438 24.1966C21.1532 24.5873 20.5203 24.5873 20.1296 24.1966L8.34745 12.4145L12.4133 8.34862L24.1955 20.1308C24.5862 20.5215 24.5862 21.1543 24.1955 21.545Z" fill="#FFC82A"/>
<path d="M8.34878 12.4149L12.415 8.34861L8.10628 7.51986C7.75878 7.45361 7.45378 7.75861 7.52128 8.10486L8.35003 12.4136L8.34878 12.4149Z" fill="#FFAD24"/>
</svg>
