<svg width="32" height="32" viewBox="0 0 32 32" fill="none" xmlns="http://www.w3.org/2000/svg">
<path d="M16 24.5C20.6944 24.5 24.5 20.6944 24.5 16C24.5 11.3056 20.6944 7.5 16 7.5C11.3056 7.5 7.5 11.3056 7.5 16C7.5 20.6944 11.3056 24.5 16 24.5Z" fill="#FFC82A"/>
<path d="M9.81507 20.9214L16.0001 24.5001H8.65132C7.76007 24.5001 7.31382 23.4226 7.94382 22.7926L9.81507 20.9214Z" fill="#FFC82A"/>
<path d="M13.25 15.2539C13.8023 15.2539 14.25 14.8062 14.25 14.2539C14.25 13.7016 13.8023 13.2539 13.25 13.2539C12.6977 13.2539 12.25 13.7016 12.25 14.2539C12.25 14.8062 12.6977 15.2539 13.25 15.2539Z" fill="#25282B"/>
<path d="M18.75 15.2539C19.3023 15.2539 19.75 14.8062 19.75 14.2539C19.75 13.7016 19.3023 13.2539 18.75 13.2539C18.1977 13.2539 17.75 13.7016 17.75 14.2539C17.75 14.8062 18.1977 15.2539 18.75 15.2539Z" fill="#25282B"/>
<path d="M15.9999 20.754C14.2799 20.754 12.7199 19.7815 11.9299 18.2165C11.7437 17.8465 11.8912 17.3953 12.2612 17.209C12.6312 17.0228 13.0824 17.1703 13.2687 17.5403C13.8024 18.5965 14.8487 19.2528 15.9987 19.2528C17.1487 19.2528 18.1962 18.5965 18.7287 17.5403C18.9149 17.1703 19.3662 17.0215 19.7362 17.209C20.1062 17.3953 20.2549 17.8465 20.0674 18.2165C19.2774 19.7815 17.7174 20.754 15.9974 20.754H15.9999Z" fill="#25282B"/>
</svg>
