<svg width="25" height="25" viewBox="0 0 25 25" fill="none" xmlns="http://www.w3.org/2000/svg">
<rect x="0.904297" y="0.51123" width="23.9037" height="23.9037" rx="3.82459" fill="#111F94"/>
<g filter="url(#filter0_b_263_4468)">
<path d="M19.5761 14.9596L13.2717 11.357C13.0216 11.2137 12.7146 11.2137 12.4645 11.357L6.16211 14.9596C5.88867 15.1161 5.88867 15.5095 6.16211 15.666L12.4666 19.2686C12.7166 19.4119 13.0236 19.4119 13.2737 19.2686L19.5782 15.666C19.8516 15.5095 19.8516 15.1161 19.5782 14.9596H19.5761Z" fill="#FF5E66"/>
<g filter="url(#filter1_bi_263_4468)">
<path d="M19.5761 12.1102L13.2717 8.50764C13.0216 8.36431 12.7146 8.36431 12.4645 8.50764L6.16211 12.1102C5.88867 12.2667 5.88867 12.6601 6.16211 12.8167L12.4666 16.4192C12.7166 16.5625 13.0236 16.5625 13.2737 16.4192L19.5782 12.8167C19.8516 12.6601 19.8516 12.2667 19.5782 12.1102H19.5761Z" fill="#CCD9FA" fill-opacity="0.6"/>
</g>
<g filter="url(#filter2_i_263_4468)">
<path d="M19.5761 9.25985L13.2727 5.6573C13.0226 5.51397 12.7156 5.51397 12.4656 5.6573L6.16211 9.25985C5.88867 9.41639 5.88867 9.80979 6.16211 9.96633L12.4666 13.5689C12.7166 13.7122 13.0236 13.7122 13.2737 13.5689L19.5782 9.96633C19.8516 9.80979 19.8516 9.41639 19.5782 9.25985H19.5761Z" fill="#2C58FF"/>
</g>
</g>
<defs>
<filter id="filter0_b_263_4468" x="3.00763" y="2.60162" width="19.723" height="19.7225" filterUnits="userSpaceOnUse" color-interpolation-filters="sRGB">
<feFlood flood-opacity="0" result="BackgroundImageFix"/>
<feGaussianBlur in="BackgroundImageFix" stdDeviation="0.051361"/>
<feComposite in2="SourceAlpha" operator="in" result="effect1_backgroundBlur_263_4468"/>
<feBlend mode="normal" in="SourceGraphic" in2="effect1_backgroundBlur_263_4468" result="shape"/>
</filter>
<filter id="filter1_bi_263_4468" x="4.83356" y="7.27667" width="16.0731" height="10.3734" filterUnits="userSpaceOnUse" color-interpolation-filters="sRGB">
<feFlood flood-opacity="0" result="BackgroundImageFix"/>
<feGaussianBlur in="BackgroundImageFix" stdDeviation="0.561737"/>
<feComposite in2="SourceAlpha" operator="in" result="effect1_backgroundBlur_263_4468"/>
<feBlend mode="normal" in="SourceGraphic" in2="effect1_backgroundBlur_263_4468" result="shape"/>
<feColorMatrix in="SourceAlpha" type="matrix" values="0 0 0 0 0 0 0 0 0 0 0 0 0 0 0 0 0 0 127 0" result="hardAlpha"/>
<feOffset dx="0.051361" dy="-0.051361"/>
<feGaussianBlur stdDeviation="0.0256805"/>
<feComposite in2="hardAlpha" operator="arithmetic" k2="-1" k3="1"/>
<feColorMatrix type="matrix" values="0 0 0 0 1 0 0 0 0 1 0 0 0 0 1 0 0 0 0.45 0"/>
<feBlend mode="normal" in2="shape" result="effect2_innerShadow_263_4468"/>
</filter>
<filter id="filter2_i_263_4468" x="5.95703" y="5.49844" width="13.8775" height="8.17783" filterUnits="userSpaceOnUse" color-interpolation-filters="sRGB">
<feFlood flood-opacity="0" result="BackgroundImageFix"/>
<feBlend mode="normal" in="SourceGraphic" in2="BackgroundImageFix" result="shape"/>
<feColorMatrix in="SourceAlpha" type="matrix" values="0 0 0 0 0 0 0 0 0 0 0 0 0 0 0 0 0 0 127 0" result="hardAlpha"/>
<feOffset dx="0.051361" dy="-0.051361"/>
<feGaussianBlur stdDeviation="0.051361"/>
<feComposite in2="hardAlpha" operator="arithmetic" k2="-1" k3="1"/>
<feColorMatrix type="matrix" values="0 0 0 0 0.207843 0 0 0 0 0.431373 0 0 0 0 1 0 0 0 1 0"/>
<feBlend mode="normal" in2="shape" result="effect1_innerShadow_263_4468"/>
</filter>
</defs>
</svg>
