<svg width="32" height="32" viewBox="0 0 32 32" fill="none" xmlns="http://www.w3.org/2000/svg">
<path d="M24.5 7H7.5C7.22386 7 7 7.22386 7 7.5V24.5C7 24.7761 7.22386 25 7.5 25H24.5C24.7761 25 25 24.7761 25 24.5V7.5C25 7.22386 24.7761 7 24.5 7Z" fill="#C3D1EF"/>
<path d="M24.5 25.46H7.5C7.37393 25.46 7.24904 25.4352 7.13257 25.387C7.0161 25.3387 6.91031 25.268 6.82117 25.1789C6.73202 25.0897 6.66128 24.9839 6.61304 24.8674C6.56479 24.7509 6.54004 24.6261 6.54004 24.5V7.50003C6.54004 7.37396 6.56479 7.24913 6.61304 7.13266C6.66128 7.01619 6.73202 6.91034 6.82117 6.8212C6.91031 6.73205 7.0161 6.66134 7.13257 6.6131C7.24904 6.56485 7.37393 6.54004 7.5 6.54004H24.5C24.7546 6.54004 24.9988 6.64116 25.1788 6.8212C25.3589 7.00123 25.46 7.24542 25.46 7.50003V24.5C25.46 24.7546 25.3589 24.9988 25.1788 25.1789C24.9988 25.3589 24.7546 25.46 24.5 25.46ZM7.5 7.46002C7.48976 7.46111 7.48018 7.46568 7.4729 7.47296C7.46562 7.48024 7.46105 7.48979 7.45996 7.50003V24.5C7.46105 24.5103 7.46562 24.5198 7.4729 24.5271C7.48018 24.5344 7.48976 24.539 7.5 24.54H24.5C24.5102 24.539 24.5198 24.5344 24.5271 24.5271C24.5344 24.5198 24.539 24.5103 24.54 24.5V7.50003C24.539 7.48979 24.5344 7.48024 24.5271 7.47296C24.5198 7.46568 24.5102 7.46111 24.5 7.46002H7.5Z" fill="#5878CF"/>
<path d="M16.0001 20.5954C18.8451 20.5954 20.8551 19.4003 21.2551 17.8403C21.4075 17.2755 21.4075 16.6802 21.2551 16.1153C21.021 15.3166 20.6255 14.5743 20.0932 13.9345C19.5608 13.2946 18.903 12.7708 18.1601 12.3953C18.2427 12.2421 18.2623 12.0628 18.215 11.8953C18.1677 11.7408 18.0668 11.6081 17.9305 11.5212C17.7942 11.4343 17.6314 11.3988 17.4713 11.4211C17.3111 11.4434 17.1641 11.522 17.0567 11.6428C16.9493 11.7636 16.8885 11.9187 16.8851 12.0803C16.3074 12.007 15.7228 12.007 15.1451 12.0803C15.1458 11.917 15.0872 11.7589 14.9803 11.6354C14.8733 11.5119 14.7252 11.4314 14.5634 11.4088C14.4016 11.3862 14.2371 11.4231 14.1004 11.5126C13.9637 11.602 13.864 11.738 13.82 11.8953C13.7945 11.9778 13.7858 12.0645 13.7944 12.1504C13.803 12.2363 13.8287 12.3196 13.8701 12.3953C13.125 12.7711 12.4654 13.2961 11.9321 13.9379C11.3987 14.5796 11.0032 15.3242 10.7701 16.1254C10.6225 16.6824 10.6225 17.2683 10.7701 17.8254C11.1501 19.4004 13.1601 20.5954 16.0001 20.5954Z" fill="white"/>
<path d="M17.5501 11.405H17.6551C17.7812 11.4255 17.899 11.4808 17.9953 11.5647C18.0916 11.6487 18.1625 11.7579 18.2 11.88C18.2473 12.0475 18.2276 12.2268 18.1451 12.38C18.8879 12.7554 19.5459 13.2792 20.0783 13.9191C20.6106 14.5589 21.006 15.3012 21.24 16.1C21.3925 16.6649 21.3925 17.2601 21.24 17.825C20.84 19.385 18.83 20.58 15.985 20.58C13.14 20.58 11.135 19.385 10.73 17.825C10.5825 17.2679 10.5825 16.682 10.73 16.125C10.9631 15.3238 11.3587 14.5792 11.892 13.9375C12.4253 13.2958 13.085 12.7707 13.83 12.395C13.7886 12.3192 13.7629 12.2359 13.7543 12.15C13.7457 12.0641 13.7545 11.9774 13.7801 11.895C13.8161 11.7729 13.8859 11.6636 13.9815 11.5796C14.077 11.4955 14.1944 11.4402 14.32 11.42H14.4301C14.6082 11.42 14.7791 11.4904 14.9056 11.6159C15.032 11.7414 15.1037 11.9118 15.105 12.09C15.4008 12.0386 15.6999 12.0085 16 12C16.2893 11.9984 16.5783 12.0167 16.865 12.055C16.8657 11.9663 16.8838 11.8787 16.9184 11.797C16.9529 11.7154 17.0032 11.6414 17.0663 11.5791C17.1295 11.5169 17.2041 11.4677 17.2863 11.4344C17.3684 11.4011 17.4564 11.3843 17.5451 11.385L17.5501 11.405ZM17.5451 10.46C17.301 10.4603 17.0601 10.5163 16.8409 10.6238C16.6216 10.7312 16.4299 10.8872 16.2801 11.08H15.71C15.5607 10.8879 15.3697 10.7323 15.1514 10.6249C14.9331 10.5174 14.6933 10.4611 14.45 10.46C14.3667 10.4548 14.2832 10.4548 14.2 10.46C13.902 10.5079 13.6234 10.6382 13.3954 10.8361C13.1675 11.034 12.9994 11.2916 12.9101 11.58C12.885 11.6702 12.8666 11.7621 12.855 11.855C11.3986 12.7756 10.331 14.1991 9.85501 15.855C9.66747 16.5662 9.66747 17.3138 9.85501 18.025C10.39 20.105 12.855 21.495 16.01 21.495C19.165 21.495 21.6301 20.105 22.1601 18.045C22.3504 17.3223 22.3504 16.5627 22.1601 15.84C21.6754 14.1962 20.6091 12.785 19.1601 11.87C19.1485 11.7771 19.1301 11.6852 19.105 11.595C19.0157 11.3066 18.8476 11.049 18.6197 10.8511C18.3917 10.6532 18.113 10.5229 17.815 10.475C17.7334 10.47 17.6516 10.47 17.57 10.475L17.5451 10.46Z" fill="#5878CF"/>
<path d="M14.785 15.5853C14.8718 15.5975 14.9602 15.5829 15.0384 15.5435C15.1167 15.5041 15.1811 15.4416 15.2229 15.3646C15.2647 15.2876 15.282 15.1996 15.2725 15.1125C15.2629 15.0253 15.2269 14.9432 15.1693 14.8771C15.1118 14.811 15.0354 14.7641 14.9504 14.7426C14.8655 14.7211 14.7759 14.7261 14.6938 14.7569C14.6118 14.7877 14.5412 14.8429 14.4913 14.915C14.4415 14.987 14.4149 15.0726 14.415 15.1603C14.4082 15.2656 14.4431 15.3694 14.5124 15.449C14.5818 15.5286 14.6798 15.5776 14.785 15.5853Z" fill="#5878CF"/>
<path d="M17.215 15.585C17.3018 15.5962 17.3899 15.5807 17.4676 15.5405C17.5453 15.5003 17.6088 15.4374 17.6498 15.3602C17.6908 15.2829 17.7073 15.195 17.6971 15.1081C17.6868 15.0213 17.6503 14.9396 17.5925 14.874C17.5346 14.8084 17.4581 14.7621 17.3732 14.7411C17.2883 14.7201 17.199 14.7255 17.1172 14.7566C17.0355 14.7876 16.9652 14.8429 16.9157 14.915C16.8662 14.9871 16.8397 15.0725 16.84 15.16C16.8345 15.2658 16.8708 15.3696 16.9409 15.449C17.011 15.5285 17.1093 15.5773 17.215 15.585Z" fill="#5878CF"/>
<path d="M17.1 16.255C16.7724 16.3633 16.4165 16.3473 16.1 16.21C16.0652 16.1951 16.0278 16.1875 15.99 16.1875C15.9522 16.1875 15.9148 16.1951 15.88 16.21C15.5634 16.3457 15.2086 16.3635 14.88 16.26C14.8434 16.2408 14.8032 16.2293 14.7619 16.2264C14.7205 16.2235 14.679 16.2291 14.64 16.243C14.601 16.2569 14.5653 16.2787 14.5352 16.307C14.505 16.3354 14.481 16.3697 14.4647 16.4077C14.4485 16.4458 14.4402 16.4869 14.4406 16.5283C14.4409 16.5697 14.4499 16.6106 14.4668 16.6483C14.4837 16.6861 14.5083 16.72 14.539 16.7478C14.5696 16.7756 14.6058 16.7968 14.645 16.81C14.8493 16.8874 15.0666 16.9248 15.285 16.92C15.5197 16.919 15.7527 16.8801 15.975 16.805C16.4053 16.9567 16.8747 16.9567 17.3051 16.805C17.3414 16.7902 17.3744 16.7683 17.4022 16.7406C17.43 16.7129 17.452 16.6799 17.4669 16.6436C17.4818 16.6073 17.4894 16.5684 17.489 16.5291C17.4887 16.4899 17.4805 16.4511 17.465 16.415C17.4334 16.349 17.3793 16.2965 17.3123 16.2672C17.2453 16.2378 17.1699 16.2335 17.1 16.255Z" fill="#5878CF"/>
<path d="M16 15.8954C16.235 15.8954 16.415 15.7554 16.415 15.5754C16.415 15.4804 16.36 15.3154 16 15.3154C15.64 15.3154 15.585 15.4804 15.585 15.5754C15.5987 15.6724 15.6497 15.7601 15.7273 15.8199C15.8048 15.8797 15.9027 15.9068 16 15.8954Z" fill="#5878CF"/>
</svg>
