<svg width="32" height="32" viewBox="0 0 32 32" fill="none" xmlns="http://www.w3.org/2000/svg">
<path d="M20.25 6.5H11.75C10.5074 6.5 9.5 7.50736 9.5 8.75V23.25C9.5 24.4926 10.5074 25.5 11.75 25.5H20.25C21.4926 25.5 22.5 24.4926 22.5 23.25V8.75C22.5 7.50736 21.4926 6.5 20.25 6.5Z" fill="#239A6D"/>
<path d="M19.75 8H12.25C11.5596 8 11 8.55964 11 9.25V22.75C11 23.4404 11.5596 24 12.25 24H19.75C20.4404 24 21 23.4404 21 22.75V9.25C21 8.55964 20.4404 8 19.75 8Z" fill="#15C480"/>
<path d="M17.4387 9H14.5625C14.14 9 13.7625 8.73375 13.6212 8.33625L13.5012 8H18.5012L18.3812 8.33625C18.2387 8.73375 17.8625 9 17.44 9H17.4387Z" fill="#239A6D"/>
<path d="M16 19.5C17.933 19.5 19.5 17.933 19.5 16C19.5 14.067 17.933 12.5 16 12.5C14.067 12.5 12.5 14.067 12.5 16C12.5 17.933 14.067 19.5 16 19.5Z" fill="#FFC82A"/>
<path d="M16.2326 17.4424L17.9547 15.4612C18.2038 15.1747 18.1735 14.7404 17.8869 14.4913C17.6003 14.2422 17.1661 14.2726 16.917 14.5592L15.1948 16.5403C14.9457 16.8268 14.9761 17.2611 15.2627 17.5102C15.5492 17.7593 15.9835 17.7289 16.2326 17.4424Z" fill="white"/>
<path d="M16.1985 16.5043L15.0495 15.3553C14.781 15.0868 14.3457 15.0868 14.0772 15.3553C13.8087 15.6238 13.8087 16.0591 14.0772 16.3275L15.2263 17.4766C15.4948 17.7451 15.9301 17.7451 16.1985 17.4766C16.467 17.2081 16.467 16.7728 16.1985 16.5043Z" fill="white"/>
</svg>
