<svg width="25" height="25" viewBox="0 0 25 25" fill="none" xmlns="http://www.w3.org/2000/svg">
<rect x="0.904297" y="0.355469" width="23.9037" height="23.9037" rx="5.12222" fill="#6A7081"/>
<path d="M12.7486 9.26997L8.42674 13.5883C8.34295 13.6746 8.28606 13.7833 8.26308 13.9013L7.82556 16.1281C7.79243 16.294 7.80078 16.4655 7.84983 16.6274C7.89889 16.7893 7.98713 16.9367 8.10676 17.0563C8.22639 17.176 8.37372 17.2641 8.53563 17.3132C8.69755 17.3622 8.86907 17.3706 9.03499 17.3376L11.2617 16.8999C11.3793 16.8763 11.487 16.8181 11.5712 16.7328L15.8896 12.4145L12.7486 9.26997Z" fill="white"/>
<path d="M17.3485 8.28473L16.8718 7.80813C16.5177 7.45494 16.038 7.25659 15.5379 7.25659C15.0378 7.25659 14.5581 7.45494 14.204 7.80813L13.5957 8.41638L16.7402 11.5609L17.3485 10.9526C17.7016 10.5985 17.9 10.1188 17.9 9.61864C17.9 9.11852 17.7016 8.63882 17.3485 8.28473Z" fill="white"/>
</svg>
