<svg width="32" height="32" viewBox="0 0 32 32" fill="none" xmlns="http://www.w3.org/2000/svg">
<path d="M23.5 7.5H8.5C7.94772 7.5 7.5 7.94772 7.5 8.5V23.5C7.5 24.0523 7.94772 24.5 8.5 24.5H23.5C24.0523 24.5 24.5 24.0523 24.5 23.5V8.5C24.5 7.94772 24.0523 7.5 23.5 7.5Z" fill="#7666EF"/>
<path d="M13.25 14.625C13.8713 14.625 14.375 14.1213 14.375 13.5C14.375 12.8787 13.8713 12.375 13.25 12.375C12.6287 12.375 12.125 12.8787 12.125 13.5C12.125 14.1213 12.6287 14.625 13.25 14.625Z" fill="#EAECFF"/>
<path d="M16.7351 13.9836L13.9863 18.4836C13.6813 18.9836 14.0413 19.6248 14.6263 19.6248H20.1238C20.7101 19.6248 21.0688 18.9836 20.7638 18.4836L18.0151 13.9836C17.7226 13.5048 17.0276 13.5048 16.7351 13.9836Z" fill="#EAECFF"/>
<path d="M12.6101 16.2336L11.2363 18.4836C10.9313 18.9836 11.2913 19.6248 11.8763 19.6248H14.6238C15.2088 19.6248 15.5688 18.9836 15.2638 18.4836L13.8901 16.2336C13.5976 15.7548 12.9026 15.7548 12.6101 16.2336Z" fill="#EAECFF"/>
</svg>
