<svg width="36" height="36" viewBox="0 0 36 36" fill="none" xmlns="http://www.w3.org/2000/svg">
<path d="M23.7837 19.1076L23.2212 18.5284C23.085 18.3859 23.0089 18.1964 23.0087 17.9993C23.0076 17.8018 23.0839 17.6118 23.2212 17.4701L23.7837 16.8868C23.9656 16.6974 24.0813 16.4543 24.1136 16.1936C24.1459 15.9331 24.093 15.669 23.9628 15.4409L23.1962 14.1118C23.0646 13.8843 22.8625 13.7059 22.6203 13.6036C22.3782 13.5014 22.1094 13.4808 21.8546 13.5451L21.0587 13.741C20.9657 13.7656 20.8687 13.7713 20.7736 13.7577C20.6783 13.7441 20.5869 13.7115 20.5046 13.6618C20.3338 13.563 20.2082 13.4016 20.1545 13.2118L19.9296 12.4326C19.8565 12.1806 19.7037 11.9591 19.4941 11.8014C19.2845 11.6436 19.0294 11.5581 18.7671 11.5576H17.2296C16.9677 11.5583 16.7132 11.644 16.5043 11.8018C16.2954 11.9596 16.1434 12.181 16.0712 12.4326L15.842 13.2201C15.7881 13.3977 15.667 13.5471 15.5045 13.6368C15.3256 13.7404 15.1134 13.7702 14.9129 13.7201L14.1462 13.5243C13.8914 13.46 13.6225 13.4805 13.3804 13.5828C13.1383 13.685 12.9361 13.8634 12.8046 14.0909L12.0378 15.4201C11.9065 15.6476 11.8525 15.9115 11.8841 16.1722C11.9157 16.433 12.031 16.6764 12.2129 16.8659L12.7795 17.4493C12.9169 17.5911 12.9932 17.7811 12.992 17.9784C12.9919 18.1756 12.9158 18.3651 12.7795 18.5076L12.2129 19.0868C12.0316 19.2767 11.9167 19.5201 11.8852 19.7806C11.8536 20.0412 11.9072 20.305 12.0378 20.5327L12.8046 21.8618C12.9363 22.0883 13.1376 22.2662 13.3786 22.369C13.6196 22.4718 13.8874 22.4942 14.142 22.4326L14.9462 22.2326C15.1296 22.1859 15.324 22.2129 15.4879 22.3077C15.6638 22.4113 15.7935 22.5782 15.8504 22.7743L16.0712 23.5451C16.144 23.7964 16.2962 24.0174 16.505 24.1751C16.7137 24.3328 16.9679 24.4188 17.2296 24.4201H18.7671C19.0292 24.419 19.2841 24.3332 19.4935 24.1755C19.703 24.0178 19.8559 23.7968 19.9296 23.5451L20.1586 22.7451C20.2106 22.569 20.3286 22.4198 20.4879 22.3284C20.6652 22.2247 20.8762 22.1948 21.0754 22.2451L21.8546 22.4409C22.1098 22.5035 22.3785 22.4817 22.6203 22.3788C22.8621 22.2758 23.0642 22.0974 23.1962 21.8701L23.9628 20.5409C24.09 20.3142 24.1412 20.0528 24.1091 19.7948C24.0768 19.5369 23.9628 19.296 23.7837 19.1076ZM18.0004 20.0826C17.5883 20.0826 17.1856 19.9604 16.843 19.7315C16.5003 19.5026 16.2333 19.1773 16.0756 18.7965C15.9179 18.4158 15.8767 17.9969 15.9571 17.5928C16.0375 17.1887 16.2359 16.8175 16.5272 16.5262C16.8186 16.2348 17.1898 16.0364 17.5939 15.956C17.9981 15.8756 18.417 15.9168 18.7976 16.0745C19.1783 16.2322 19.5036 16.4993 19.7326 16.8418C19.9616 17.1844 20.0837 17.5873 20.0837 17.9993C20.0837 18.5518 19.8642 19.0817 19.4735 19.4724C19.0828 19.8631 18.5529 20.0826 18.0004 20.0826Z" fill="#6A7081"/>
</svg>
