<svg width="25" height="25" viewBox="0 0 25 25" fill="none" xmlns="http://www.w3.org/2000/svg">
<rect x="0.904297" y="0.629639" width="23.9037" height="23.9037" rx="5.12222" fill="#FFC063"/>
<g clip-path="url(#clip0_263_4523)">
<g clip-path="url(#clip1_263_4523)">
<path d="M12.8851 16.996C12.7215 16.996 12.5543 16.9426 12.4156 16.843L9.42762 14.6696H8.62371C7.73444 14.6696 7.00879 13.944 7.00879 13.0547V12.105C7.00879 11.2157 7.73444 10.49 8.62371 10.49H9.42762L12.4156 8.31664C12.661 8.13879 12.9776 8.11389 13.2479 8.25262C13.5183 8.38779 13.6855 8.66168 13.6855 8.96404V16.1956C13.6855 16.498 13.5183 16.7719 13.2479 16.907C13.1341 16.9675 13.0096 16.996 12.8851 16.996ZM8.62371 11.2726C8.16485 11.2726 7.79135 11.6461 7.79135 12.105V13.0547C7.79135 13.5136 8.16485 13.8871 8.62371 13.8871H9.55567C9.63749 13.8871 9.7193 13.912 9.78688 13.9618L12.878 16.2098L12.9029 8.96404L9.78688 11.1979C9.7193 11.2477 9.64104 11.2726 9.55567 11.2726H8.62371Z" fill="white"/>
<path d="M16.7301 16.7433L16.1787 16.1919C17.1462 15.2244 17.6798 13.9331 17.6798 12.5637C17.6798 11.1942 17.1498 9.92074 16.1929 8.95321L16.7478 8.40186C17.8541 9.51523 18.4624 10.995 18.4624 12.5637C18.4624 14.1323 17.847 15.6299 16.7301 16.7433Z" fill="white"/>
<path d="M15.4137 15.0713L14.8623 14.52C15.3852 13.9971 15.6733 13.3034 15.6733 12.5636C15.6733 11.8237 15.3923 11.1478 14.8765 10.6249L15.435 10.0771C16.0931 10.7459 16.4559 11.628 16.4559 12.5636C16.4559 13.4991 16.0859 14.4026 15.4172 15.0713H15.4137Z" fill="white"/>
</g>
</g>
<defs>
<clipPath id="clip0_263_4523">
<rect width="17.0741" height="17.0741" fill="white" transform="translate(4.31934 4.04443)"/>
</clipPath>
<clipPath id="clip1_263_4523">
<rect width="17.0741" height="17.0741" fill="white" transform="translate(4.31934 4.04443)"/>
</clipPath>
</defs>
</svg>
