<svg width="36" height="36" viewBox="0 0 36 36" fill="none" xmlns="http://www.w3.org/2000/svg">
<rect x="0.5" y="0.5" width="35" height="35" rx="17.5" fill="white"/>
<rect x="0.5" y="0.5" width="35" height="35" rx="17.5" stroke="#E2E6F0"/>
<g clip-path="url(#clip0_1719_26270)">
<path d="M18.3266 17.6732C20.8524 17.6732 22.9 15.6256 22.9 13.0998C22.9 10.574 20.8524 8.52637 18.3266 8.52637C15.8008 8.52637 13.7532 10.574 13.7532 13.0998C13.7532 15.6256 15.8008 17.6732 18.3266 17.6732Z" fill="#F1F4FA"/>
<path d="M24.9934 27.4739C21.6018 27.4739 15.0413 27.4739 11.6474 27.4739C10.4016 27.4739 9.48498 26.2897 9.81656 25.0889C10.8468 21.3586 14.2621 18.8457 18.3192 18.8457C22.3763 18.8457 25.7916 21.3586 26.8218 25.0889C27.1534 26.2897 26.2368 27.4739 24.991 27.4739H24.9934Z" fill="#F1F4FA"/>
</g>
<defs>
<clipPath id="clip0_1719_26270">
<rect width="17.142" height="18.9474" fill="white" transform="translate(9.74817 8.52637)"/>
</clipPath>
</defs>
</svg>
