<svg width="32" height="32" viewBox="0 0 32 32" fill="none" xmlns="http://www.w3.org/2000/svg">
<g clip-path="url(#clip0_1748_3194)">
<path d="M24 7.5H8C7.44772 7.5 7 7.94772 7 8.5V20C7 20.5523 7.44772 21 8 21H24C24.5523 21 25 20.5523 25 20V8.5C25 7.94772 24.5523 7.5 24 7.5Z" fill="#73A9EA"/>
<path d="M12.5 23H19.5C20.0525 23 20.5 23.4475 20.5 24C20.5 24.2763 20.2762 24.5 20 24.5H12C11.7237 24.5 11.5 24.2763 11.5 24C11.5 23.4475 11.9475 23 12.5 23Z" fill="#2C6CCC"/>
<path d="M18.5 21H13.5V23H18.5V21Z" fill="#2C6CCC"/>
<path d="M17.9863 13.7287L15.155 11.825C14.7375 11.5437 14.1763 11.8437 14.1763 12.3462V16.1525C14.1763 16.6562 14.7375 16.955 15.155 16.6737L17.9863 14.77C18.3563 14.5212 18.3563 13.9762 17.9863 13.7262V13.7287Z" fill="white"/>
</g>
<defs>
<clipPath id="clip0_1748_3194">
<rect width="24" height="24" fill="white" transform="translate(4 4)"/>
</clipPath>
</defs>
</svg>
